<?xml version="1.0" encoding="utf-8"?>
<!-- Generator: Adobe Illustrator 24.1.3, SVG Export Plug-In . SVG Version: 6.00 Build 0)  -->
<svg version="1.1" xmlns="http://www.w3.org/2000/svg" xmlns:xlink="http://www.w3.org/1999/xlink" x="0px" y="0px"
	 viewBox="0 0 500 500" style="enable-background:new 0 0 500 500;" xml:space="preserve">
<style type="text/css">
	.st0{display:none;}
	.st1{display:inline;fill:#FFFFFF;}
	.st2{fill:#E1E1E1;}
	.st3{fill:#5E5E5E;}
	.st4{fill:#D0D7E9;}
	.st5{fill:#1A2B36;}
	.st6{fill:#B5CAD9;}
	.st7{fill:#4D6F80;}
	.st8{fill:#64A1A3;}
	.st9{fill:#7AC7C7;}
	.st10{fill:#E6B48F;}
	.st11{fill:#DFE3EB;}
	.st12{fill:#394A5C;}
	.st13{fill:#496076;}
	.st14{fill:#F0F5FF;}
	.st15{fill:#DE9E85;}
	.st16{fill:#FFFFFF;}
	.st17{fill:#713E3D;}
	.st18{clip-path:url(#SVGID_2_);}
	.st19{fill:#745345;}
	.st20{fill:#390A0A;}
	.st21{clip-path:url(#SVGID_4_);}
	.st22{fill:#C78E78;}
	.st23{fill:#558570;}
	.st24{fill:#76B375;}
	.st25{fill:#98733F;}
	.st26{fill:#CC9252;}
	.st27{fill:#B4F7E0;}
	.st28{fill:#444444;}
	.st29{fill:#C4A577;}
	.st30{fill:#E4C188;}
	.st31{fill:#A0D9D5;}
	.st32{fill:#E6EFFD;}
	.st33{fill:#C4D5DC;}
	.st34{fill:#DEEBF0;}
	.st35{fill:#B6D1DC;}
	.st36{fill:#CFE7F0;}
	.st37{fill:#B7D1E6;}
	.st38{fill:#6DAECD;}
	.st39{fill:#F1CC4E;}
	.st40{fill:#CDCC4A;}
	.st41{fill:#AAF5DA;}
	.st42{fill:#D1D4FC;}
	.st43{display:inline;}
	.st44{fill:#A5B7C6;}
</style>
<g id="BACKGROUND" class="st0">
	<rect class="st1" width="500" height="500"/>
</g>
<g id="OBJECTS">
	<g>
		<g>
			<path class="st2" d="M433.4,443.4c0,3.7-70.5,6.6-157.4,6.6c-86.9,0-157.4-3-157.4-6.6c0-3.7,70.5-6.6,157.4-6.6
				C363,436.8,433.4,439.7,433.4,443.4z"/>
			<g>
				<g>
					<g>
						<g>
							<path class="st3" d="M301.4,423.1c1.1-0.2,30.3-20.3,23.5-19.6c-0.7,0.1-1.6,0.2-2.4,0.3c-6.9,1-16.5,3.4-16.5,3.4l-6-4.3
								l-5.5-3.9l-0.9-0.7l-6.3,6.3c0,0,2.5,3.5,5.3,7.4c1,1.4,2.2,3,3.2,4.4c1.1,1.5,2.2,2.9,3.1,4
								C300.2,422.1,301.1,423.2,301.4,423.1z"/>
						</g>
						<path class="st4" d="M295.8,416.5c4.5-2.5,10.2-9.2,10.2-9.2l-6-4.3l-5.4-3.8c-3,2.3-6.5,5.1-7.2,5.7c0,0,2.4,3.4,5.2,7.3
							C293.6,413.6,294.7,415.1,295.8,416.5z"/>
					</g>
					<path class="st5" d="M303.6,408.6c0.5,0.1,1.8-0.1,2.2-0.6c0,0.1,0,0.2,0.1,0.2c1.1,0.5,2.1-0.9,3.1-1.6
						c-0.1,0.8-0.3,1.6-0.3,2.5c0,0.3,0.4,0.6,0.7,0.4c1.3-0.9,2-2.7,3.5-2.8c0,0.2,0.1,0.5,0.4,0.5c1.1-0.1,2.1-0.6,2.9-1.4
						c0.2-0.2,0-0.6-0.3-0.5c-0.6,0.2-1.2,0.6-1.8,0.8c-0.1-0.1-0.1-0.2-0.3-0.2c-2.2-0.5-2.9,1-4.2,2.3c0.1-0.8,0.3-1.5,0.2-2.3
						c0-0.3-0.3-0.5-0.5-0.4c-1,0.4-1.8,1.3-2.6,1.9c1.6-2.6-0.8-7.4-3.6-8.3c-1.8-0.5-2,0.7-1.5,2.2c0.6,1.8,1.8,3.5,3,5.1
						c-1-0.8-1.9-1.8-3.1-2.4c-0.9-0.4-1.7-0.7-2.7-0.8c-1.1-0.1-2.5,0.4-1.6,1.7C298.6,407,301,408.3,303.6,408.6z M305.9,407.3
						c-1.2-1.6-2.3-3.3-3.3-5c-0.3-0.6-0.7-1.2-0.8-1.8c-0.3-1.5,1.4-0.7,2-0.1C305.6,401.9,307.4,405,305.9,407.3z M298.5,405.4
						c-0.4-0.4-1.6-1.7-0.3-1.6c1.5,0,3,0.6,4.1,1.5c0.9,0.8,1.8,1.7,2.9,2.3c-0.6,0.8-4.1-0.4-4.4-0.5
						C299.9,406.6,299.1,406.1,298.5,405.4z"/>
				</g>
				<g>
					<g>
						<rect x="187.4" y="372.1" class="st6" width="7" height="14"/>
					</g>
					<path class="st7" d="M229.4,363c0,4.5-4.7,12-9.6,12h-56.2c-4.9,0-6.2-7.6-6.2-12v-0.3c0-4.5,1.3-7.7,6.2-7.7h56.2
						c4.9,0,9.6,3.2,9.6,7.7V363z"/>
					<g>
						<g>
							<path class="st6" d="M190.2,409.8c1.8-1.1,4.2-0.7,6.2-0.5c2.5,0.2,5.1,0.4,7.6,0.3c4.7-0.1,9.6,0.1,14,2.1
								c3.6,1.6,8.4,4.9,9.7,8.8c1,3,1,7.8-1.4,10.3c-0.4,0.4-1,0-0.9-0.5c0.2-1.2-0.4-2.8-0.5-4.1c-0.2-2.2,0.3-3.9-1.2-5.7
								c-2.6-3.3-6.5-5.6-10.5-6.6c-3.8-0.9-7.7-0.7-11.5-0.9c-1.9-0.1-3.8-0.5-5.7-0.8c-1.9-0.4-4.1-0.4-5.8-1.5
								C189.9,410.3,189.9,409.9,190.2,409.8z"/>
							<path class="st6" d="M187,409.8c-1.8-1.1-4.2-0.7-6.2-0.5c-2.5,0.2-5.1,0.4-7.6,0.3c-4.7-0.1-9.6,0.1-14,2.1
								c-3.6,1.6-8.4,4.9-9.7,8.8c-1,3-1,7.8,1.4,10.3c0.4,0.4,1,0,0.9-0.5c-0.2-1.2,0.4-2.8,0.5-4.1c0.2-2.2-0.3-3.9,1.2-5.7
								c2.6-3.3,6.5-5.6,10.5-6.6c3.8-0.9,7.7-0.7,11.5-0.9c1.9-0.1,3.8-0.5,5.7-0.8c1.9-0.4,4.1-0.4,5.8-1.5
								C187.2,410.3,187.2,409.9,187,409.8z"/>
							<path class="st6" d="M168.7,422.5c0.3-2.6,1.8-5.2,3.9-6.7c2.3-1.7,4.9-2.4,7.7-2.8c1.4-0.2,2.7-0.4,4.1-0.7
								c1.4-0.4,2.6-1,4-1.2c0.7-0.1,1.4,0.6,1,1.3c-2.3,4.1-8.6,3.3-12.5,4.6c-2.8,0.9-4.8,3.2-5.5,6c-0.3,1.4-0.1,3,0,4.4
								c0,1.2,0.3,2.3-0.2,3.3c-0.2,0.4-0.7,0.3-0.9,0C168.7,428.4,168.5,425,168.7,422.5z"/>
							<path class="st6" d="M206.3,422.5c-0.3-2.6-1.8-5.2-3.9-6.7c-2.3-1.7-4.9-2.4-7.7-2.8c-1.4-0.2-2.7-0.4-4.1-0.7
								c-1.4-0.4-2.6-1-4-1.2c-0.7-0.1-1.4,0.6-1,1.3c2.3,4.1,8.6,3.3,12.5,4.6c2.8,0.9,4.8,3.2,5.5,6c0.3,1.4,0.1,3,0,4.4
								c0,1.2-0.3,2.3,0.2,3.3c0.2,0.4,0.6,0.3,0.9,0C206.3,428.4,206.6,425,206.3,422.5z"/>
						</g>
						<g>
							<g>
								<g>
									<g>
										<path class="st3" d="M178.2,434c0,0.3,0,0.6-0.1,0.8c-0.4,3.3-3.5,5.9-7.3,5.9c-3.7,0-6.8-2.6-7.3-5.9
											c0-0.3-0.1-0.6-0.1-0.8c0-3.7,3.3-6.7,7.3-6.7C174.9,427.3,178.2,430.3,178.2,434z"/>
									</g>
								</g>
								<g>
									<g>
										<path class="st3" d="M157.6,434c0,0.3,0,0.6-0.1,0.8c-0.5,3.3-3.5,5.9-7.3,5.9c-3.7,0-6.8-2.6-7.3-5.9
											c0-0.3-0.1-0.6-0.1-0.8c0-3.7,3.3-6.7,7.3-6.7C154.3,427.3,157.6,430.3,157.6,434z"/>
									</g>
								</g>
							</g>
							<g>
								<g>
									<g>
										<path class="st3" d="M213.6,434c0,0.3,0,0.6-0.1,0.8c-0.4,3.3-3.5,5.9-7.3,5.9c-3.7,0-6.8-2.6-7.3-5.9
											c0-0.3-0.1-0.6-0.1-0.8c0-3.7,3.3-6.7,7.3-6.7C210.3,427.3,213.6,430.3,213.6,434z"/>
									</g>
								</g>
								<g>
									<g>
										<path class="st3" d="M217.9,434c0,0.3,0,0.6,0.1,0.8c0.5,3.3,3.5,5.9,7.3,5.9c3.7,0,6.8-2.6,7.3-5.9
											c0-0.3,0.1-0.6,0.1-0.8c0-3.7-3.3-6.7-7.3-6.7C221.2,427.3,217.9,430.3,217.9,434z"/>
									</g>
								</g>
							</g>
							<g>
								<rect x="183.4" y="386.1" class="st7" width="14" height="32"/>
							</g>
						</g>
					</g>
					<g>
						<path class="st8" d="M250.4,347.4c-2.6-2.5-6.3-3.4-11.5-4c-5.9-0.7-3.1-1.1-15.2-1.3c-7.6-0.1-25.2-1-27.6-9.9
							c-0.8-3-0.5-6.6-0.7-9.7c-0.2-2.8-0.3-5.6-0.5-8.4c-0.3-5.1-0.5-10.2-0.8-15.4c-0.6-9.4-1.1-18.8-1.7-28.1
							c-0.1-1.8-0.3-3.7-0.3-5.6c0-5.3-4.5-12.3-12.1-13.2c-14.5-1.8-45.4-4.9-48.3,0c0,0,7,80.2,8.8,86.5c1.8,6.3,26,11.9,28.8,13
							c1.8,0.7,3.5,0.8,11.7,0.8c4.9,5.5-10.4,9.7,0,10.6c2.4,0.2,60.3-1,61.8-0.9c5.3,0.3,9.9-3.3,10.2-8
							C253.3,351.6,252.3,349.2,250.4,347.4z"/>
						<g>
							<path class="st9" d="M155,362.3c-9.9-0.8-17.5-4.2-22.7-10.2c-5.2-5.9-6-12.2-6.1-13.5c0-0.3,0-0.6,0-0.9l-1-79
								c-0.1-4.9,3.1-9,7.2-9.4c4-0.3,7.3,3.3,7.4,8.2c0.1,7.3,0.2,14.5,0.3,21.8c0.1,13,0.2,26.1,0.5,39.1c0.1,2.8,0.1,5.5,0.1,8.3
								c-0.1,4.5-0.5,10.3,2.9,13c2.8,2.2,5.5,3.7,8.9,4.3c2.9,0.5,6,0.8,8.9,0.8c9.1-0.1,16,0.1,20.4,0.7c3.9,0.5,6.7,1.3,8.6,3.8
								c1.3,1.8,2,4.2,1.8,6.6c-0.4,4.9-3,7.2-7,7c-1.2-0.1-10.2,0.9-24.4-0.5C158.7,362.2,156.8,362.4,155,362.3z"/>
						</g>
					</g>
					<g>
						<g>
							<g>
								<path class="st7" d="M176.5,387.3c-0.3,0-0.5-0.1-0.7-0.2c-0.5-0.4-0.5-1-0.1-1.5l11.1-11.9c0.4-0.4,1.1-0.5,1.6-0.1
									c0.5,0.4,0.5,1,0.1,1.4l-11.1,11.9C177.1,387.2,176.8,387.3,176.5,387.3z"/>
							</g>
						</g>
						<path class="st7" d="M179.7,387.7c0,2.8-2.3,5.1-5.1,5.1c-2.8,0-5.1-2.3-5.1-5.1c0-2.8,2.3-5.1,5.1-5.1
							C177.4,382.6,179.7,384.9,179.7,387.7z"/>
					</g>
				</g>
				<g>
					<path class="st10" d="M276.3,297.5c-3.8-10.1-19.7-9.6-25.5-2.3l-7.2,4.8c5.4,4.4,18,2,24.8,3
						C273,303.7,279.2,305.2,276.3,297.5z"/>
					<path class="st11" d="M193.9,250.4c0,0-3.4,60.1,62.4,50.5l2.7-12.4c0,0-30-8.2-35.6-17.9c0,0-4.4-16.2-9.3-26.7
						C207.2,229.5,198.8,222.4,193.9,250.4z"/>
				</g>
				<path class="st12" d="M160.1,317.1c0,0-5.2,28.2,11.5,29.5c16.6,1.3,60.5,9.8,64.4,15.3c3.8,5.6,55.2,54.4,55.2,54.4l12.7-14
					c0,0-42.1-54-58-65.6c-21.7-15.8-54.3-21.6-54.3-21.6L160.1,317.1z"/>
				<g>
					<g>
						<g>
							<g>
								<path class="st3" d="M275.1,436.2c1.1,0,32.8-15.9,26-16.2c-0.7,0-1.6,0-2.4,0c-7,0-16.9,1.1-16.9,1.1l-5.4-5.1l-4.9-4.6
									l-0.8-0.8l-7.1,5.4c0,0,2,3.8,4.2,8.1c0.8,1.6,1.7,3.2,2.6,4.8c0.9,1.6,1.8,3.2,2.5,4.4C274,435,274.8,436.2,275.1,436.2z"
									/>
							</g>
							<path class="st4" d="M270.4,428.8c4.8-1.9,11.4-7.7,11.4-7.7l-5.4-5.1l-4.8-4.6c-3.3,1.9-7.1,4.2-7.9,4.7c0,0,1.9,3.7,4.2,8
								C268.6,425.6,269.5,427.3,270.4,428.8z"/>
						</g>
						<path class="st5" d="M279.2,422c0.5,0.1,1.8,0.1,2.2-0.3c0,0.1,0,0.2,0.1,0.3c1,0.7,2.2-0.6,3.3-1.2c-0.2,0.8-0.5,1.6-0.6,2.4
							c0,0.3,0.3,0.6,0.6,0.5c1.4-0.7,2.3-2.4,3.9-2.3c-0.1,0.2,0,0.5,0.3,0.6c1.1,0,2.1-0.4,3-1c0.2-0.2,0.1-0.5-0.2-0.5
							c-0.6,0.1-1.2,0.4-1.9,0.6c0-0.1-0.1-0.2-0.2-0.3c-2.1-0.8-3,0.6-4.5,1.7c0.2-0.7,0.5-1.5,0.6-2.2c0-0.3-0.2-0.6-0.5-0.5
							c-1.1,0.2-1.9,1-2.9,1.6c1.9-2.4,0.2-7.5-2.4-8.7c-1.7-0.7-2.1,0.4-1.8,1.9c0.4,1.8,1.3,3.7,2.2,5.5c-0.9-1-1.6-2.1-2.7-2.8
							c-0.8-0.5-1.6-0.9-2.5-1.1c-1.1-0.3-2.6,0-1.8,1.4C274.5,419.8,276.7,421.4,279.2,422z M281.8,421.1c-1-1.7-1.8-3.6-2.6-5.4
							c-0.2-0.6-0.5-1.3-0.5-1.9c0-1.5,1.5-0.5,2,0.2C282.2,415.7,283.5,419.1,281.8,421.1z M274.6,418.2c-0.3-0.4-1.4-1.9-0.1-1.6
							c1.5,0.3,2.8,1,3.8,2.1c0.8,0.9,1.6,1.9,2.5,2.6c-0.7,0.7-4-0.9-4.2-1.1C275.9,419.6,275.2,419,274.6,418.2z"/>
					</g>
					<path class="st13" d="M149.9,311.5c0,0-9.1,27.2,7.2,30.8c16.3,3.6,58.6,18.1,61.6,24.2c3,6,47.1,61.6,47.1,61.6l14.5-12.1
						c0,0-34.1-59.4-48.3-73.1c-19.3-18.7-50.7-29-50.7-29L149.9,311.5z"/>
				</g>
				<path class="st3" d="M151.8,305.5c0,0,32.6,4.8,41.7,3l-0.6,6.6c0,0-31.4,4.2-42.9-3.6L151.8,305.5z"/>
				<path class="st14" d="M151.8,305.5c-2.4-0.6-14.7-71.8-7.9-77.9c10.3-9.1,62.2-9.7,65.2,12.1c3,21.5-15.7,68.8-15.7,68.8
					S177.1,311.5,151.8,305.5z"/>
				<g>
					<path class="st10" d="M258.2,301.1c-3.8-10.1-19.7-9.6-25.5-2.3l-7.2,4.8c5.4,4.4,18,2,24.8,3
						C254.9,307.4,261.1,308.8,258.2,301.1z"/>
					<path class="st14" d="M152.2,226.5c13.3,0.4,14,17.9,23.7,30.6c18.1,23.7,29.9,29.6,38.7,32c10.9,3,22.3,4.2,22.3,4.2
						l-1.8,16.3c0,0-42.9,1.2-63.4-16.3c-9.5-8.1-17-18.9-22.7-29.9c-4.5-8.8-9.6-21.1-6.4-31.2c0.8-2.4,2.1-4.2,4.5-5
						C148.9,226.7,150.6,226.5,152.2,226.5z"/>
				</g>
				<path class="st15" d="M168.7,204.6c-0.5,1.8-3.7,20.5-3.7,20.5s17.5,13.9,22.5,9.7c0,0,1.4-7.2,0.9-13.3
					c-0.5-6-0.9-13.9-0.9-13.9L168.7,204.6z"/>
				<g>
					<polygon class="st16" points="181.9,308.6 183.7,318.2 191.8,317.5 192.1,308 					"/>
					<polygon class="st3" points="184.8,310.5 185,316.3 190,315.7 190.2,310.3 					"/>
				</g>
				<path class="st17" d="M201.1,153.1c-3.1-2.1,0.2-7.3-2.4-11.4c-6.6-10.6-16.8,4.3-23.9,1.4c-5-2.1-6-4.8-12.1-3
					c-4.7,1.4-8.9,5.3-9.6,10.3c-0.6,3.9,2.8,7.9,2.3,11.3c-0.6,3.9-5.5,3.9-7.2,7.7c-3.9,8.6,3.6,24.9,13.9,24.5l20.4-16.8
					c8-4.6,14.2-2.5,22.2-4.5c5.2-1.3,7-6.4,6.8-11.4C211.2,152.3,206,156.5,201.1,153.1z"/>
				<path class="st10" d="M196.6,161.6c-1,0-2,0.1-3.3,0.4c-5.7,1.4-11.3,3.3-17,4.8c-3.3,0.9-11,2.7-11.4,7.2
					c-0.3,2.9,0,5.8-0.2,8.7c-0.4,5.5-2.4,10.2-5.1,14.7c0.9,2,1.9,4,3,5.9c1.2,2.1,2.4,4.1,3.9,5.9c3,3.4,6.8,6.2,11,7.9
					c5,2.1,11.3,2.5,15.7-1c4.1-3.1,6.2-9.6,7.6-14.5c1.4-4.7,0.3-10.3-0.1-15.2C200.1,178.8,201.4,168.4,196.6,161.6z"/>
				<g>
					<path class="st16" d="M170.6,184.8c0,3.7,1.9,6.8,4.3,6.8c2.4,0,4.3-3,4.3-6.8s-1.9-6.8-4.3-6.8
						C172.6,178,170.6,181.1,170.6,184.8z"/>
					<g>
						<defs>
							<path id="SVGID_1_" d="M179.3,184.8c0,3.7-1.9,6.8-4.3,6.8c-2.4,0-4.3-3-4.3-6.8c0-3.7,1.9-6.8,4.3-6.8
								C177.4,178,179.3,181.1,179.3,184.8z"/>
						</defs>
						<clipPath id="SVGID_2_">
							<use xlink:href="#SVGID_1_"  style="overflow:visible;"/>
						</clipPath>
						<g class="st18">
							<path class="st19" d="M173.3,185.8c-0.4,2.7,0.7,5.2,2.5,5.5c1.8,0.3,3.6-1.7,4.1-4.4c0.4-2.7-0.7-5.2-2.5-5.5
								C175.6,181.1,173.7,183.1,173.3,185.8z"/>
							<path class="st20" d="M174,186c-0.3,2.2,0.5,4.1,1.9,4.3c1.4,0.2,2.8-1.3,3.1-3.5c0.3-2.1-0.5-4.1-1.8-4.3
								C175.7,182.3,174.3,183.8,174,186z"/>
							<path class="st16" d="M173.9,182.2c-0.1,0.5,0.6,0.9,1.6,1.1c0.9,0.2,1.7-0.1,1.8-0.6c0.1-0.5-0.6-0.9-1.6-1.1
								C174.8,181.5,173.9,181.8,173.9,182.2z"/>
						</g>
					</g>
				</g>
				<g>
					<path class="st16" d="M188.8,184.8c0,3.7,1.9,6.8,4.3,6.8c2.4,0,4.3-3,4.3-6.8s-1.9-6.8-4.3-6.8
						C190.7,178,188.8,181.1,188.8,184.8z"/>
					<g>
						<defs>
							<path id="SVGID_3_" d="M197.4,184.8c0,3.7-1.9,6.8-4.3,6.8c-2.4,0-4.3-3-4.3-6.8c0-3.7,1.9-6.8,4.3-6.8
								C195.5,178,197.4,181.1,197.4,184.8z"/>
						</defs>
						<clipPath id="SVGID_4_">
							<use xlink:href="#SVGID_3_"  style="overflow:visible;"/>
						</clipPath>
						<g class="st21">
							<path class="st19" d="M191.4,185.8c-0.4,2.7,0.7,5.2,2.5,5.5c1.8,0.3,3.6-1.7,4.1-4.4c0.4-2.7-0.7-5.2-2.5-5.5
								C193.7,181.1,191.9,183.1,191.4,185.8z"/>
							<path class="st20" d="M192.1,186c-0.3,2.2,0.5,4.1,1.9,4.3c1.4,0.2,2.8-1.3,3.1-3.5c0.3-2.1-0.5-4.1-1.8-4.3
								C193.9,182.3,192.5,183.8,192.1,186z"/>
							<path class="st16" d="M192,182.2c-0.1,0.5,0.6,0.9,1.6,1.1c0.9,0.2,1.7-0.1,1.8-0.6c0.1-0.5-0.6-0.9-1.6-1.1
								C192.9,181.5,192.1,181.8,192,182.2z"/>
						</g>
					</g>
				</g>
				<g>
					<path class="st10" d="M161.2,187.1c0,0-9.8-9.3-9.8,1.1c0,10.4,7.9,13,12,10.9C167.5,196.9,161.2,187.1,161.2,187.1z"/>
					<path class="st15" d="M160.9,189.1c0,0-6.6-5.8-7.3-2.5c-0.8,3.3,0.7,6.8,0.7,6.8s-0.2-4.2,3.4-2.8c0,0-1,7.2,4.3,3.7
						C162,194.4,163.8,191.8,160.9,189.1z"/>
				</g>
				<path class="st22" d="M188.2,191.1c-0.6-2.9-1.6-7.4-3.3-6.7c-1.9,0.7-0.8,7.9-0.5,9.3c0.4,1.7,3.1,7.6,5.7,6.4
					C192.4,199,189.7,193.9,188.2,191.1z"/>
				<path class="st17" d="M170.2,173.6c-1.9,2.9-1,5.5-1,5.5c1.9-4.7,7.9-2.7,11.4-4.1C181.6,168,172.1,170.7,170.2,173.6z"/>
				<path class="st17" d="M196.7,170.9c2.1,2.4,2.1,5.1,2.1,5.1c-2.6-4.2-6.3-1.1-9.2-1.8C187.1,167.6,194.6,168.5,196.7,170.9z"/>
				<path class="st11" d="M203.9,283.3c-4-2.6-7.9-5.2-11.6-8.3c-3.7-3.1-7.1-6.5-10.3-10c-2.9-3.2-5.4-6.9-7.7-10.5
					c-0.5-1.6-0.8-3.2-1-4.8c-0.1-1.1-0.1-2.3,0.1-3.4c0.1-0.9,0.6-1.7,0.7-2.6c0-0.2-0.3-0.4-0.5-0.3c-1.8,1.2-1.6,4.4-1.4,6.3
					c0.1,0.5,0.1,1.1,0.3,1.6c-1.9-3.5-3.2-7.4-5.1-10.9c-0.1-0.2-0.4-0.1-0.4,0.2c1.7,9.3,7.4,18,13.4,25.1
					c6.2,7.3,14.4,14.5,23.2,18.4C203.9,284.2,204.3,283.6,203.9,283.3z"/>
				<path class="st11" d="M181.4,299.7c-6.8-4.8-13.3-9.6-18.7-16c-2.6-3.1-5.1-6.3-7.3-9.6c-2.2-3.4-3.7-7.3-5.9-10.7
					c-0.1-0.2-0.5-0.2-0.5,0.1c0.3,3.4,2.2,6.8,4,9.8c-1.3-0.8-2.7-1.4-4-2.1c-0.4-0.2-1,0.2-0.7,0.7c1.5,2.3,4.8,2.2,6.4,4.3
					c0.1,0.1,0.1,0.1,0.2,0.2c1.9,2.8,4,5.5,6.2,8.1c2.8,3.3,5.7,6.2,9.1,8.8c3.5,2.7,7.3,4.9,10.9,7.3
					C181.4,300.8,181.9,300,181.4,299.7z"/>
				<path class="st17" d="M203.2,200.6c-0.3-2.6-0.9-5.2-1.8-7.7c0,0-2,4.4-2.9,5.6c-0.9,1.2-2.8,1.3-4.2,1.4
					c-1.8,0.1-3.1,0.2-4,1.4c-1-0.9-2.6-1-4-1c-1.5,0-2.8,0.1-4.2-0.3c-2.3-0.6-4.4-2-6.4-3.2c-3.5-2-6.6-3.6-9.3-6.8
					c-2.7-3.3-4.1-7.3-4.9-11.5c-0.1-0.6-1.1-0.5-1.1,0.1c0,3,1,6,2.5,8.8c0.5,3.5,0,7.2,0,10.6c0.1,4.4,0.7,8.6,2.6,12.6
					c2.3,4.9,6.9,8.4,11.8,10.2c7.4,2.7,19.6,6.1,24-3.6c1.4-3,1.6-5.4,1.9-8.6C203.5,206,203.5,203.3,203.2,200.6z"/>
				<path class="st16" d="M180,202.1c0,0,10.5,3.8,16.7,0.5C196.8,202.5,190.6,223.6,180,202.1z"/>
			</g>
			<g>
				<g>
					<g>
						<path class="st23" d="M415.2,267.8c-2.8,0.9-3.5,2.4-3.3,4.6c0.4,4,7.1,6.3,10.9,4c0.1,0.1,0.2,0.2,0.5,0.3
							c4.2,0.6,9.7-0.3,12.2-3.1c1.7-1.8,1.9-3.9,0.7-6c-1.1-1.9-4.3-4.5-2.3-6.7c1.5-1.7,3.8-2.7,5.9-3.9c5.1-2.9,4.9-7.2-1-9.1
							c-3.5-1.1-1-4.7-1.2-6.9c-0.1-1.3-0.3-2.7-1.3-3.9c-1.7-2.1-4.4-3.9-7.7-4.3c-7-0.8-10.2,3.7-9.8,8.5c0.2,1.9,0.8,3.7,1.2,5.6
							c0.1,0.5,1.5,4.5-1.2,4c-0.8-0.2-1.6-0.4-2.4-0.6c-2.4-0.8-4.8-1.5-7.4-0.8c-6.6,1.8-2.4,10.2,1.1,12.6
							C411.9,263.1,419.9,266.3,415.2,267.8z"/>
						<path class="st24" d="M417.2,270.5c0.8,0.9,3,0.7,4.1,1.4c0.1,0.1,0.2,0.2,0.3,0.2c0-1.2,0.1-2.4,0.4-3.6c0-0.1,0-0.1,0-0.2
							c0.7-2.2,1-4.3-0.2-6.4c-0.8-1.4-3-2.3-4.5-3.3c-2.1-1.5-2.9-3.2-2.2-5.3c0.2-0.7,1.7-0.4,1.4,0.3c-1.2,3.8,4.4,5.1,6.6,7.8
							c0.7,0.9,1,2,1.1,3.1c2.1-2.7,4.8-4.7,5.3-8.3c0.5-3.9,0-7.9-1.1-11.7c-0.7-2.4-1.6-4.8,0.2-7c0.5-0.6,1.8,0,1.3,0.6
							c-2.3,2.7,0.3,6.6,0.8,9.5c0.5,2.8,0.6,5.6,0.4,8.4c0.3-0.3,0.7-0.7,1.2-0.9c2.2-1.4,4.7-2,5.8-4.2c0.3-0.7,1.8-0.4,1.4,0.3
							c-0.8,1.5-2,2.6-3.8,3.5c-1.1,0.6-2.3,1.1-3.3,1.8c-1,0.8-1.5,1.9-1.9,3c0,0.1-0.1,0.2-0.3,0.3c-0.9,1.9-2.7,3.5-4.2,5.1
							c-2.2,2.3-2.8,4.8-2.8,7.3c0.6-0.8,1.4-1.5,2.3-2c1.9-1,5.1-0.8,5.2-3c0-0.7,1.5-0.7,1.5,0c-0.1,1.5-0.9,2.4-2.8,2.9
							c-1.3,0.4-2.4,0.5-3.5,1.2c-1.4,0.9-2.2,2.2-2.5,3.6c0,0.1-0.1,0.1-0.1,0.2c0,0.3,0.1,0.5,0.1,0.8c0.1,0.7-1.4,0.7-1.5,0
							c0-0.1,0-0.3-0.1-0.4c-0.2,0-0.4-0.2-0.4-0.4c-0.2-1.2-0.6-2.1-2.3-2.5c-1.4-0.4-2.5-0.3-3.4-1.3
							C415.4,270.5,416.7,269.9,417.2,270.5z"/>
					</g>
					<g>
						<polygon class="st25" points="435.4,302.4 438.4,274.6 408.5,274.6 409.8,302.4 						"/>
						<polygon class="st26" points="400.8,280.7 403.8,271.6 442.2,270.3 445.8,281.2 						"/>
					</g>
				</g>
				<g>
					<g>
						<g>
							<polygon class="st3" points="299.4,226.8 278.3,293.6 377.2,293.6 398.2,226.8 							"/>
							<path class="st27" d="M350.4,260c-1.3,4.5-4.9,7.3-8,6.4c-3.1-0.9-4.5-5.3-3.2-9.7c1.3-4.5,4.9-7.3,8-6.4
								C350.4,251.2,351.8,255.6,350.4,260z"/>
						</g>
						<g>
							<path class="st3" d="M378,293.9c0,4.8-3.4,8.1-7.7,8.1H262.5c-4.2,0-7.7-3.4-7.7-8.1c0-0.1,0,0.1,0,0.1h123.1
								C377.9,294.1,378,293.8,378,293.9z"/>
							<rect x="294.4" y="294.1" class="st28" width="68" height="4"/>
						</g>
					</g>
					<g>
						<polygon class="st29" points="210.3,444 235.1,309.8 215.6,309.8 202.9,444 						"/>
						<polygon class="st29" points="396.3,444 371.5,309.8 391,309.8 403.6,444 						"/>
					</g>
					<rect x="162.4" y="302.1" class="st30" width="301" height="10"/>
				</g>
			</g>
		</g>
		<g>
			<g>
				<path class="st31" d="M412.4,199.8c0,2.9-2.4,5.3-5.3,5.3H266.8c-2.9,0-5.5-2.4-5.5-5.3v-27.7c0-2.9,2.6-5,5.5-5H407
					c2.9,0,5.3,2.1,5.3,5V199.8z"/>
				<path class="st32" d="M412.4,172.4v27.9c0,2.9-2.6,4.8-5.6,4.8H302.4v-38h104.4C409.7,167.1,412.4,169.4,412.4,172.4z"/>
				<g>
					<path class="st16" d="M404.4,173.6c0,0.8-0.7,1.5-1.5,1.5h-90c-0.8,0-1.5-0.7-1.5-1.5l0,0c0-0.8,0.7-1.5,1.5-1.5h90
						C403.7,172.1,404.4,172.7,404.4,173.6L404.4,173.6z"/>
					<path class="st16" d="M404.4,181.6c0,0.8-0.7,1.5-1.5,1.5h-90c-0.8,0-1.5-0.7-1.5-1.5l0,0c0-0.8,0.7-1.5,1.5-1.5h90
						C403.7,180.1,404.4,180.7,404.4,181.6L404.4,181.6z"/>
					<path class="st16" d="M404.4,197.6c0,0.8-0.7,1.5-1.5,1.5h-89.9c-0.9,0-1.5-0.7-1.5-1.5l0,0c0-0.8,0.7-1.5,1.5-1.5h89.9
						C403.7,196.1,404.4,196.7,404.4,197.6L404.4,197.6z"/>
					<g>
						<path class="st16" d="M370.4,188.6c0,0.9-1.4,2.5-2.2,2.5h-55.7c-0.9,0-1.1-1.6-1.1-2.5v-0.2c0-0.9,0.2-2.4,1.1-2.4h55.7
							c0.9,0,2.2,1.5,2.2,2.4V188.6z"/>
						<path class="st16" d="M403.4,187.6c0,0.8-0.7,1.5-1.5,1.5h-26c-0.8,0-1.5-0.7-1.5-1.5l0,0c0-0.8,0.7-1.5,1.5-1.5h26
							C402.7,186.1,403.4,186.7,403.4,187.6L403.4,187.6z"/>
					</g>
				</g>
			</g>
			<g>
				<g>
					<path class="st33" d="M363.4,103.2v27.5c0,0.5,0.1,1.1-0.2,1.5c-0.3,0.4-0.5,0.9-1.1,0.9h-36.6c-0.2,0-0.3,0-0.5,0l-0.4-0.3
						c-0.8-0.4-1.3-1.2-1.3-2.1v-27.5c0-1,1.1-1.1,2.1-1.1h36.6C363.1,102.1,363.4,102.2,363.4,103.2z"/>
					<path class="st34" d="M363.4,103.2v2.8l-19.9,12.7l-20.1-12.8v-2.7c0-1,1.1-1.1,2.1-1.1h36.6
						C363.1,102.1,363.4,102.2,363.4,103.2z"/>
				</g>
				<g>
					<path class="st35" d="M390.4,121.3v27.5c0,0.5-0.2,1.1-0.5,1.4c-0.3,0.4-0.8,0.8-1.4,0.8h-36.6c-0.2,0-0.3,0-0.5,0l0-0.2
						c-0.8-0.4-1-1.2-1-2v-27.5c0-1,0.5-2.3,1.5-2.3h36.6C389.5,119.1,390.4,120.4,390.4,121.3z"/>
					<path class="st36" d="M390.4,121.3v2.8l-19.9,12.7l-20.1-12.8v-2.7c0-1,0.5-2.3,1.5-2.3h36.6
						C389.5,119.1,390.4,120.4,390.4,121.3z"/>
				</g>
				<g>
					<path class="st37" d="M294.3,58.9c0,0.3-0.1,0.6-0.2,0.7c-0.1,0.2-0.3,0.3-0.6,0.3c-0.2,0.1-0.5,0.1-0.7,0.1
						c-0.3,0-0.5,0-0.8,0.1l-0.7,0.1c0.2,1.4,0.3,2.9,0.4,4.3c0,1.4,0.1,2.9,0.1,4.3c0,0.5,0,0.9,0,1.4c0,0.5-0.1,1-0.2,1.5
						c-0.1,0.5-0.2,1-0.4,1.4c-0.2,0.5-0.4,0.9-0.7,1.2c-0.3,0.3-0.7,0.6-1.1,0.8c-0.4,0.2-1,0.3-1.6,0.3c-0.7,0-1.3-0.1-1.9-0.4
						c-0.6-0.3-1-0.7-1.4-1.2c-0.4-0.5-0.7-1-0.9-1.6c-0.2-0.6-0.3-1.2-0.3-1.9c0-0.1,0-0.3,0-0.6c0-0.3,0-0.6,0.1-0.9
						c0.1-0.3,0.1-0.6,0.3-0.8c0.1-0.2,0.3-0.3,0.5-0.3c0.1,0,0.2,0,0.4,0.1c0.2,0.1,0.3,0.1,0.5,0.2c0.1,0.1,0.3,0.2,0.4,0.3
						c0.1,0.1,0.2,0.2,0.2,0.4c0,0.3,0,0.6-0.1,0.9c-0.1,0.3-0.1,0.6-0.1,0.9c0,0.3,0,0.7,0.2,1.1c0.1,0.4,0.3,0.8,0.5,1.1
						c0.2,0.4,0.5,0.7,0.8,0.9c0.3,0.2,0.7,0.4,1.1,0.4c0.3,0,0.6-0.1,0.8-0.2c0.2-0.1,0.4-0.3,0.5-0.4c0.1-0.2,0.3-0.4,0.4-0.6
						c0.1-0.2,0.2-0.5,0.2-0.7c0.2-0.8,0.3-1.6,0.3-2.5c0-0.8,0-1.7,0-2.5c0-1.1,0-2.2-0.1-3.3c-0.1-1.1-0.2-2.2-0.3-3.3
						c-0.6,0.1-1.1,0.1-1.7,0.2c-0.6,0.1-1.1,0.1-1.7,0.1c-0.1,0-0.3,0-0.3-0.1c-0.1-0.1-0.1-0.2-0.1-0.3c0-0.3,0.1-0.5,0.3-0.7
						c0.2-0.1,0.4-0.3,0.7-0.3c0.4-0.1,0.9-0.2,1.4-0.3c0.5-0.1,0.9-0.1,1.4-0.2v-0.2c0-0.1,0.1-0.2,0.2-0.3c0.1,0,0.2-0.1,0.3-0.1
						c0.2,0,0.3,0,0.5,0.1c0.2,0,0.3,0.1,0.5,0.2c0.5-0.1,0.9-0.2,1.4-0.3c0.5-0.1,0.9-0.2,1.4-0.2c0.2,0,0.3,0.1,0.4,0.2
						C294.3,58.6,294.3,58.7,294.3,58.9z"/>
					<path class="st37" d="M304.2,68.8c0,0.2-0.1,0.3-0.2,0.5c-0.1,0.2-0.3,0.3-0.4,0.4c0,0-0.1,0-0.2,0.1c-0.1,0-0.2,0-0.3,0.1
						c-0.1,0-0.2,0-0.3,0.1c-0.1,0-0.2,0-0.2,0l0.3,1.8c0.1,0.6,0.2,1.1,0.2,1.7c0,0.6,0.2,1.1,0.3,1.7c0,0,0,0.1,0,0.1
						c0,0,0,0.1,0,0.2c0,0.1,0,0.2-0.1,0.2c-0.1,0.1-0.1,0.1-0.2,0.1c-0.1,0-0.2,0-0.3,0.1c-0.1,0-0.2,0-0.3,0h-0.2
						c-0.3,0-0.5,0-0.6-0.1c-0.1,0-0.2-0.1-0.3-0.2c-0.1-0.1-0.1-0.2-0.2-0.4c0-0.2-0.1-0.3-0.1-0.6c-0.2-1.5-0.4-3-0.7-4.4
						c-0.5,0.1-1,0.1-1.6,0.2c-0.5,0.1-1.1,0.1-1.6,0.2l-0.4,2.4c0,0.1,0,0.3-0.1,0.6c0,0.3-0.1,0.5-0.1,0.8c0,0.3-0.1,0.5-0.1,0.7
						c0,0.2-0.1,0.4-0.2,0.5c0,0.1-0.1,0.2-0.1,0.2c0,0-0.1,0.1-0.2,0.1c-0.2,0-0.3,0-0.4-0.1c-0.1-0.1-0.3-0.1-0.4-0.2
						c-0.1-0.1-0.2-0.2-0.3-0.3c-0.1-0.1-0.1-0.3-0.1-0.4c0-0.2,0-0.3,0.1-0.5c0-0.2,0.1-0.3,0.1-0.5c0.1-0.5,0.2-1.1,0.3-1.6
						c0.1-0.5,0.2-1.1,0.3-1.6c-0.1,0-0.1,0-0.2,0c-0.1,0-0.1,0-0.2-0.1c-0.1,0-0.1-0.1-0.2-0.1c-0.1,0-0.1-0.1-0.1-0.2
						c0-0.1,0-0.2,0.1-0.2c0.1-0.1,0.1-0.1,0.2-0.2c0.1-0.1,0.2-0.1,0.3-0.2c0.1,0,0.2-0.1,0.2-0.1c0.2-1.1,0.3-2.3,0.5-3.4
						c0.2-1.1,0.3-2.3,0.4-3.4c0-0.3,0.1-0.6,0.1-0.9c0-0.3,0.1-0.6,0.1-0.9c0-0.3,0.1-0.6,0.1-0.9c0-0.3,0.1-0.6,0.2-0.9
						c0.1-0.3,0.2-0.5,0.4-0.7c0.2-0.2,0.4-0.3,0.8-0.3c0.1,0,0.2,0,0.3,0c0.1,0,0.2,0,0.3,0.1c0.2,0.1,0.4,0.4,0.7,0.9
						c0.2,0.5,0.5,1,0.7,1.7c0.2,0.7,0.5,1.4,0.7,2.2c0.2,0.8,0.4,1.5,0.6,2.3c0.2,0.7,0.3,1.4,0.5,2c0.1,0.6,0.2,1,0.3,1.3
						c0.2,0,0.4,0,0.5-0.1c0.2,0,0.4,0,0.5,0c0.1,0,0.2,0,0.3,0c0.1,0,0.2,0,0.3,0.1c0.1,0,0.2,0.1,0.2,0.2
						C304.2,68.6,304.2,68.6,304.2,68.8z M300.2,68.7c-0.2-1.2-0.5-2.3-0.7-3.4c-0.3-1.1-0.6-2.3-0.9-3.4c-0.2,1.2-0.3,2.4-0.5,3.6
						c-0.2,1.2-0.4,2.4-0.6,3.6c0.5-0.1,0.9-0.1,1.3-0.2C299.4,68.8,299.8,68.8,300.2,68.7z"/>
					<path class="st37" d="M312.3,63.3c0,1.9-0.2,3.8-0.5,5.7c-0.3,1.9-0.9,3.7-1.7,5.5c0,0.1,0.1,0.1,0.1,0.2
						c0.1,0.1,0.1,0.2,0.2,0.3c0.1,0.1,0.1,0.2,0.1,0.3c0,0.1,0.1,0.2,0.1,0.2c0,0.1,0,0.2-0.1,0.3c-0.1,0.1-0.2,0.1-0.3,0.1
						c-0.1,0-0.2,0-0.3,0c-0.1,0-0.2,0-0.3,0c-0.2,0-0.4,0-0.6,0c-0.2,0-0.3-0.1-0.5-0.3c-0.1-0.1-0.3-0.3-0.4-0.7
						c-0.2-0.4-0.3-0.9-0.5-1.5c-0.2-0.6-0.4-1.3-0.6-2c-0.2-0.7-0.4-1.5-0.6-2.3c-0.2-0.8-0.4-1.6-0.6-2.3
						c-0.2-0.8-0.4-1.5-0.5-2.2c-0.2-0.7-0.3-1.3-0.4-1.8c-0.1-0.5-0.2-0.9-0.3-1.1c-0.1-0.4-0.2-0.8-0.3-1.2
						c-0.1-0.4-0.2-0.8-0.2-1.3c0-0.1,0.1-0.2,0.2-0.3c0.1,0,0.2-0.1,0.3-0.1c0.2,0,0.5,0,0.7,0.1c0.2,0.1,0.4,0.2,0.5,0.4
						c0.1,0.1,0.1,0.3,0.2,0.5c0,0.2,0.1,0.3,0.1,0.5c0.3,1.2,0.5,2.4,0.8,3.5c0.3,1.2,0.6,2.3,0.9,3.5c0.2,0.7,0.4,1.5,0.6,2.2
						c0.2,0.7,0.4,1.4,0.7,2.2c0.4-1.3,0.7-2.6,0.9-3.9c0.2-1.3,0.3-2.7,0.3-4c0-0.2,0-0.5,0-0.8c0-0.3,0-0.7,0-1c0-0.4,0-0.7,0-1.1
						c0-0.4,0-0.7-0.1-1.1c0-0.3-0.1-0.7-0.1-1c-0.1-0.3-0.1-0.5-0.2-0.7c0-0.1-0.1-0.1-0.1-0.2c0-0.1,0-0.1,0-0.2
						c0-0.1,0-0.2,0.1-0.2c0.1-0.1,0.2-0.1,0.3-0.1c0.1,0,0.2-0.1,0.3-0.1c0.1,0,0.2,0,0.3,0c0.2,0,0.4,0,0.6,0.1
						c0.2,0,0.3,0.2,0.5,0.3c0.1,0.1,0.1,0.2,0.2,0.5c0.1,0.3,0.1,0.6,0.1,0.9c0,0.4,0.1,0.7,0.1,1.1c0,0.4,0,0.8,0,1.2
						c0,0.4,0,0.7,0,1C312.3,62.9,312.3,63.2,312.3,63.3z"/>
					<path class="st37" d="M323.6,68.8c0,0.2-0.1,0.3-0.2,0.5c-0.1,0.2-0.3,0.3-0.4,0.4c0,0-0.1,0-0.2,0.1c-0.1,0-0.2,0-0.3,0.1
						c-0.1,0-0.2,0-0.3,0.1c-0.1,0-0.2,0-0.2,0l0.3,1.8c0.1,0.6,0.2,1.1,0.2,1.7c0,0.6,0.2,1.1,0.3,1.7c0,0,0,0.1,0.1,0.1
						c0,0,0,0.1,0,0.2c0,0.1,0,0.2-0.1,0.2c-0.1,0.1-0.1,0.1-0.2,0.1c-0.1,0-0.2,0-0.3,0.1c-0.1,0-0.2,0-0.3,0h-0.2
						c-0.3,0-0.5,0-0.6-0.1c-0.1,0-0.2-0.1-0.3-0.2c-0.1-0.1-0.1-0.2-0.2-0.4c0-0.2-0.1-0.3-0.1-0.6c-0.2-1.5-0.4-3-0.7-4.4
						c-0.5,0.1-1,0.1-1.6,0.2c-0.5,0.1-1.1,0.1-1.6,0.2l-0.4,2.4c0,0.1,0,0.3-0.1,0.6c0,0.3-0.1,0.5-0.1,0.8c0,0.3-0.1,0.5-0.1,0.7
						c0,0.2-0.1,0.4-0.2,0.5c0,0.1-0.1,0.2-0.1,0.2c0,0-0.1,0.1-0.2,0.1c-0.2,0-0.3,0-0.4-0.1c-0.1-0.1-0.3-0.1-0.4-0.2
						c-0.1-0.1-0.2-0.2-0.3-0.3c-0.1-0.1-0.1-0.3-0.1-0.4c0-0.2,0-0.3,0.1-0.5c0-0.2,0.1-0.3,0.1-0.5c0.1-0.5,0.2-1.1,0.3-1.6
						c0.1-0.5,0.2-1.1,0.3-1.6c-0.1,0-0.1,0-0.2,0c-0.1,0-0.1,0-0.2-0.1c-0.1,0-0.1-0.1-0.2-0.1c-0.1,0-0.1-0.1-0.1-0.2
						c0-0.1,0-0.2,0.1-0.2c0.1-0.1,0.1-0.1,0.2-0.2c0.1-0.1,0.2-0.1,0.3-0.2c0.1,0,0.2-0.1,0.2-0.1c0.2-1.1,0.3-2.3,0.5-3.4
						c0.2-1.1,0.3-2.3,0.4-3.4c0-0.3,0.1-0.6,0.1-0.9c0-0.3,0.1-0.6,0.1-0.9c0-0.3,0.1-0.6,0.1-0.9c0-0.3,0.1-0.6,0.2-0.9
						c0.1-0.3,0.2-0.5,0.4-0.7c0.2-0.2,0.4-0.3,0.8-0.3c0.1,0,0.2,0,0.3,0c0.1,0,0.2,0,0.3,0.1c0.2,0.1,0.4,0.4,0.7,0.9
						c0.2,0.5,0.5,1,0.7,1.7c0.2,0.7,0.5,1.4,0.7,2.2c0.2,0.8,0.4,1.5,0.6,2.3c0.2,0.7,0.3,1.4,0.5,2c0.1,0.6,0.2,1,0.3,1.3
						c0.2,0,0.4,0,0.5-0.1c0.2,0,0.4,0,0.5,0c0.1,0,0.2,0,0.3,0c0.1,0,0.2,0,0.3,0.1c0.1,0,0.2,0.1,0.2,0.2
						C323.5,68.6,323.6,68.6,323.6,68.8z M319.6,68.7c-0.2-1.2-0.5-2.3-0.7-3.4c-0.3-1.1-0.6-2.3-0.9-3.4c-0.2,1.2-0.3,2.4-0.5,3.6
						c-0.2,1.2-0.4,2.4-0.6,3.6c0.5-0.1,0.9-0.1,1.3-0.2C318.7,68.8,319.2,68.8,319.6,68.7z"/>
				</g>
				<g>
					<path class="st37" d="M133.4,151.6c0,0.3-0.1,0.5-0.3,0.6c-0.2,0.2-0.5,0.3-0.8,0.4c-0.3,0.1-0.6,0.2-0.9,0.2
						c-0.3,0-0.6,0.1-0.7,0.1c-0.5,0-1.1-0.1-1.6-0.3c-0.5-0.2-1-0.4-1.4-0.8c-0.3-0.3-0.6-0.6-0.8-0.9c-0.2-0.3-0.3-0.7-0.4-1
						c-0.1-0.4-0.2-0.7-0.2-1.1c0-0.4,0-0.8,0-1.2c0-0.8,0-1.6,0-2.5c0-0.8,0-1.6-0.1-2.5c0-0.2,0-0.4,0-0.5c0-0.2,0-0.4-0.1-0.6
						c0-0.2-0.1-0.4-0.1-0.5c-0.1-0.2-0.1-0.3-0.3-0.5c-0.1,0-0.2,0.1-0.4,0.1c-0.1,0-0.2,0-0.4,0c-0.3,0-0.5-0.1-0.6-0.2
						c-0.1-0.1-0.1-0.4-0.1-0.6c0-0.3,0-0.6,0.1-0.8c0.1-0.2,0.2-0.3,0.4-0.4c0.1-0.1,0.3-0.2,0.5-0.3c0.2-0.1,0.3-0.2,0.5-0.3
						c0.1-0.1,0.3-0.3,0.4-0.6c0.1-0.2,0.1-0.6,0.1-1c0-0.5-0.1-1.1-0.2-1.6c-0.2-0.5-0.3-1.1-0.5-1.6c-0.2-0.5-0.4-1.1-0.5-1.6
						c-0.2-0.6-0.2-1.1-0.2-1.8c0-0.6,0.1-1.1,0.3-1.6c0.2-0.5,0.4-0.9,0.8-1.2c0.3-0.3,0.7-0.6,1.2-0.8c0.5-0.2,1-0.3,1.6-0.3
						c0.1,0,0.3,0,0.6,0.1c0.3,0,0.6,0.1,0.9,0.2c0.3,0.1,0.5,0.2,0.8,0.3c0.2,0.1,0.3,0.3,0.3,0.5c0,0.1-0.1,0.3-0.2,0.4
						c-0.1,0.1-0.3,0.2-0.5,0.3c-0.2,0.1-0.4,0.1-0.6,0.2c-0.2,0-0.4,0-0.5,0c-0.1,0-0.2,0-0.3,0c-0.1,0-0.2,0-0.3,0
						c-0.6,0-1,0.2-1.2,0.5c-0.2,0.3-0.4,0.8-0.4,1.3c0,0.6,0.1,1.2,0.3,1.8c0.2,0.6,0.4,1.2,0.6,1.7c0.2,0.6,0.4,1.2,0.6,1.7
						c0.2,0.6,0.3,1.2,0.3,1.8c0,0.6-0.1,1.1-0.3,1.6c-0.2,0.5-0.5,1-0.9,1.3c0.3,0.4,0.6,0.9,0.7,1.5c0.2,0.6,0.3,1.2,0.3,1.9
						c0.1,0.7,0.1,1.4,0.1,2.1c0,0.7,0,1.4,0,2.1c0,0.7,0.1,1.2,0.1,1.8c0.1,0.5,0.2,0.9,0.4,1.2c0.2,0.2,0.4,0.4,0.6,0.5
						c0.2,0.1,0.5,0.2,0.8,0.2c0.2,0,0.4,0,0.6-0.1c0.2-0.1,0.3-0.1,0.5-0.2c0.1-0.1,0.3-0.1,0.4-0.2c0.1-0.1,0.2-0.1,0.4-0.1
						c0.1,0,0.3,0.1,0.4,0.2c0.1,0.1,0.2,0.2,0.3,0.4c0.1,0.1,0.2,0.3,0.2,0.5C133.3,151.3,133.4,151.5,133.4,151.6z"/>
					<path class="st37" d="M141.8,139c0,0.3,0,0.6-0.1,0.8c-0.1,0.2-0.2,0.3-0.4,0.4c-0.2,0.1-0.3,0.2-0.5,0.3
						c-0.2,0.1-0.3,0.2-0.5,0.3c-0.1,0.1-0.3,0.3-0.4,0.6c-0.1,0.2-0.1,0.6-0.1,1c0,0.6,0.1,1.1,0.2,1.6c0.2,0.5,0.3,1.1,0.5,1.6
						c0.2,0.5,0.4,1.1,0.5,1.6c0.2,0.6,0.2,1.1,0.2,1.8c0,0.6-0.1,1.1-0.3,1.6c-0.2,0.5-0.4,0.9-0.8,1.2c-0.3,0.3-0.7,0.6-1.2,0.8
						c-0.5,0.2-1,0.3-1.6,0.3c-0.1,0-0.3,0-0.6-0.1c-0.3,0-0.6-0.1-0.8-0.2c-0.3-0.1-0.5-0.2-0.7-0.3c-0.2-0.1-0.3-0.3-0.3-0.4
						c0-0.1,0.1-0.3,0.2-0.4c0.1-0.1,0.3-0.2,0.5-0.3c0.2-0.1,0.4-0.1,0.6-0.1c0.2,0,0.4-0.1,0.5-0.1h0.6c0.5,0,0.9-0.2,1.2-0.5
						c0.2-0.3,0.4-0.8,0.4-1.3c0-0.6-0.1-1.2-0.3-1.8c-0.2-0.6-0.4-1.2-0.6-1.7c-0.2-0.6-0.4-1.2-0.6-1.7c-0.2-0.6-0.3-1.2-0.3-1.8
						c0-0.6,0.1-1.1,0.3-1.6c0.2-0.5,0.5-0.9,0.9-1.3c-0.3-0.4-0.6-0.9-0.7-1.5c-0.2-0.6-0.3-1.3-0.3-1.9c-0.1-0.7-0.1-1.4-0.1-2.1
						c0-0.7,0-1.4,0-2.1c0-0.7-0.1-1.2-0.1-1.8c-0.1-0.5-0.2-0.9-0.4-1.2c-0.2-0.2-0.4-0.4-0.6-0.5c-0.2-0.1-0.5-0.2-0.8-0.2
						c-0.2,0-0.4,0-0.6,0.1c-0.2,0.1-0.3,0.1-0.5,0.2c-0.1,0.1-0.3,0.1-0.4,0.2c-0.1,0.1-0.3,0.1-0.4,0.1c-0.1,0-0.3-0.1-0.4-0.1
						c-0.1-0.1-0.2-0.2-0.3-0.4c-0.1-0.2-0.2-0.3-0.2-0.5c-0.1-0.2-0.1-0.3-0.1-0.4c0-0.3,0.1-0.5,0.3-0.6c0.2-0.2,0.5-0.3,0.8-0.4
						c0.3-0.1,0.6-0.2,0.9-0.2c0.3,0,0.6-0.1,0.7-0.1c0.6,0,1.1,0.1,1.6,0.3c0.5,0.2,1,0.4,1.4,0.8c0.3,0.3,0.6,0.6,0.8,0.9
						c0.2,0.3,0.3,0.7,0.4,1c0.1,0.3,0.2,0.7,0.2,1.1c0,0.4,0.1,0.8,0.1,1.2c0,0.8,0,1.7,0,2.5c0,0.8,0,1.6,0.1,2.5
						c0,0.2,0,0.4,0,0.5c0,0.2,0,0.4,0.1,0.6c0,0.2,0.1,0.4,0.1,0.6c0.1,0.2,0.1,0.3,0.2,0.5c0.1,0,0.3-0.1,0.4-0.1
						c0.1,0,0.2,0,0.4,0c0.3,0,0.5,0.1,0.6,0.2C141.8,138.5,141.8,138.7,141.8,139z"/>
				</g>
				<g>
					<path class="st37" d="M221.3,185.4c0,0.2,0,0.3-0.1,0.4c-0.1,0.2-0.1,0.4-0.2,0.5c-0.1,0.1-0.1,0.2-0.2,0.3
						c-0.1,0.1-0.2,0.1-0.3,0.1c-0.1,0-0.3,0-0.5,0h-4.7c-0.1,0-0.2,0-0.3,0c-0.1,0-0.2,0-0.4-0.1c-0.1,0-0.2-0.1-0.3-0.1
						c-0.1-0.1-0.1-0.2-0.1-0.3c0-0.3,0.1-0.5,0.3-0.7c0.2-0.2,0.4-0.3,0.7-0.4c0.2,0,0.5-0.1,0.7-0.1c0.2,0,0.5,0,0.7,0
						c0.7,0,1.3-0.1,2-0.1c0.7,0,1.3-0.1,2-0.1c0.1,0,0.2,0,0.3,0c0.1,0,0.2,0,0.3,0.1c0.1,0,0.2,0.1,0.2,0.1
						C221.3,185.2,221.3,185.3,221.3,185.4z"/>
					<path class="st37" d="M233.1,184.1c0,0.1,0,0.2-0.1,0.3c-0.1,0.1-0.2,0.1-0.3,0.2c-0.1,0-0.2,0.1-0.3,0.1c-0.1,0-0.2,0-0.3,0
						c-0.3,0-0.5,0-0.7,0c-0.2,0-0.4,0-0.5-0.1c-0.1-0.1-0.3-0.2-0.4-0.3c-0.1-0.1-0.2-0.4-0.3-0.6c-0.5-1-0.9-2.1-1.2-3.1
						c-0.3-1.1-0.7-2.1-1.1-3.2c-0.3,0.8-0.6,1.5-0.9,2.3c-0.3,0.8-0.7,1.5-1,2.3c-0.2,0.3-0.3,0.7-0.4,1c-0.1,0.3-0.3,0.7-0.5,1
						c-0.1,0.2-0.2,0.3-0.3,0.4c-0.1,0.1-0.2,0.1-0.5,0.1c-0.1,0-0.3,0-0.5-0.1c-0.2-0.1-0.4-0.2-0.6-0.3c-0.2-0.1-0.3-0.3-0.5-0.4
						c-0.1-0.2-0.2-0.3-0.2-0.5c0-0.1,0.1-0.2,0.2-0.5c0.1-0.3,0.3-0.6,0.4-1c0.2-0.4,0.4-0.8,0.6-1.3c0.2-0.5,0.4-0.9,0.6-1.3
						c0.2-0.4,0.4-0.8,0.5-1.1c0.2-0.3,0.3-0.6,0.3-0.7c0.3-0.6,0.5-1.3,0.7-1.9c0.2-0.6,0.4-1.3,0.6-1.9c-0.1-0.2-0.2-0.5-0.3-1
						c-0.1-0.5-0.3-1-0.5-1.6c-0.2-0.6-0.4-1.2-0.7-1.9c-0.2-0.7-0.5-1.4-0.7-2.1c-0.2-0.7-0.5-1.4-0.7-2.1
						c-0.2-0.7-0.4-1.3-0.6-1.8c-0.2-0.5-0.3-1-0.4-1.3c-0.1-0.4-0.2-0.6-0.2-0.7c0-0.1,0-0.2,0.1-0.2c0.1-0.1,0.1-0.1,0.2-0.1
						c0.1,0,0.2-0.1,0.3-0.1c0.1,0,0.2,0,0.2,0c0.5,0,0.9,0.1,1.1,0.3c0.3,0.2,0.5,0.5,0.7,0.9c0.5,1.1,1,2.3,1.4,3.5
						c0.4,1.2,0.8,2.4,1.2,3.6c0.2-1,0.4-2,0.6-3c0.2-1,0.4-2,0.6-3c0-0.2,0.1-0.5,0.1-0.8c0-0.3,0.1-0.7,0.1-1
						c0.1-0.4,0.1-0.7,0.2-1c0.1-0.3,0.1-0.6,0.2-0.7c0.1-0.1,0.1-0.2,0.2-0.3c0.1-0.1,0.2-0.1,0.3-0.1c0.2,0,0.4,0,0.6,0.1
						c0.2,0.1,0.4,0.2,0.5,0.3c0.2,0.1,0.3,0.3,0.4,0.4c0.1,0.2,0.1,0.4,0.1,0.6c0,0.8-0.1,1.6-0.3,2.4c-0.2,0.8-0.3,1.6-0.5,2.4
						c-0.3,1.4-0.5,2.9-0.8,4.3c-0.2,1.4-0.5,2.8-0.9,4.2c0.5,1.7,1.1,3.3,1.7,4.9c0.6,1.6,1.2,3.2,1.9,4.8c0.1,0.2,0.2,0.4,0.3,0.6
						C233,183.7,233.1,183.9,233.1,184.1z"/>
				</g>
				<g>
					<path class="st37" d="M223.7,232.2c0,0.1-0.1,0.2-0.2,0.3c-0.1,0.1-0.3,0.1-0.4,0.2c-0.2,0-0.3,0.1-0.5,0.1c-0.2,0-0.3,0-0.4,0
						c-0.2,0-0.4,0-0.5-0.1c-0.1-0.1-0.3-0.2-0.4-0.3c-0.1-0.1-0.3-0.4-0.6-0.7c-0.3-0.3-0.5-0.7-0.8-1.1c-0.3-0.4-0.6-0.8-0.9-1.3
						c-0.3-0.4-0.6-0.9-0.9-1.3c-0.3-0.4-0.5-0.8-0.6-1.1c-0.2-0.3-0.2-0.6-0.2-0.7c0-0.3,0.1-0.5,0.2-0.8c0.2-0.3,0.3-0.5,0.4-0.7
						l2.4-4.4c0-0.1,0.1-0.2,0.2-0.4c0.1-0.1,0.1-0.3,0.2-0.4c0.1-0.1,0.2-0.2,0.3-0.3c0.1-0.1,0.2-0.1,0.3-0.1c0.1,0,0.2,0,0.4,0.1
						c0.1,0.1,0.2,0.1,0.3,0.2c0.1,0.1,0.2,0.2,0.2,0.3c0.1,0.1,0.1,0.2,0.1,0.3c0,0.2,0,0.3-0.1,0.5c-0.1,0.1-0.1,0.3-0.2,0.4
						c-0.4,0.9-0.9,1.7-1.3,2.6c-0.4,0.9-0.9,1.7-1.3,2.6c0.2,0.4,0.4,0.7,0.7,1.2c0.3,0.4,0.6,0.8,0.9,1.2c0.3,0.4,0.6,0.8,1,1.2
						c0.3,0.4,0.6,0.7,0.9,1c0.1,0.1,0.2,0.2,0.3,0.3c0.1,0.1,0.2,0.2,0.3,0.3c0.1,0.1,0.2,0.2,0.3,0.4
						C223.6,232,223.7,232.1,223.7,232.2z"/>
					<path class="st37" d="M232.2,215.9c0,0.4,0,0.8-0.1,1.1c-0.1,0.4-0.2,0.7-0.3,1.1c-0.3,1.6-0.7,3.2-1,4.7
						c-0.3,1.6-0.6,3.2-1,4.8c-0.3,1.6-0.7,3.2-1,4.8c-0.4,1.6-0.7,3.2-1,4.8c0,0.2,0,0.3-0.1,0.5c0,0.2-0.1,0.3-0.1,0.5
						c-0.1,0.2-0.1,0.3-0.2,0.4c-0.1,0.1-0.3,0.2-0.5,0.2c-0.2,0-0.3,0-0.5-0.1c-0.2-0.1-0.4-0.1-0.6-0.2c-0.2-0.1-0.3-0.2-0.5-0.4
						c-0.1-0.1-0.2-0.3-0.2-0.5c0-0.1,0-0.1,0-0.2c0-0.1,0-0.1,0-0.2c0.2-0.8,0.3-1.5,0.5-2.3c0.2-0.8,0.4-1.5,0.5-2.3l3.2-14.3
						c0-0.2,0.1-0.4,0.2-0.8c0.1-0.3,0.1-0.7,0.2-1c0.1-0.3,0.1-0.7,0.2-1c0.1-0.3,0.1-0.5,0.2-0.6c0.1-0.1,0.1-0.2,0.2-0.3
						c0.1,0,0.2-0.1,0.3-0.1c0.2,0,0.3,0,0.5,0.1c0.2,0.1,0.3,0.2,0.5,0.3c0.1,0.1,0.3,0.3,0.3,0.4
						C232.2,215.5,232.2,215.7,232.2,215.9z"/>
					<path class="st37" d="M240.3,225.7c0,0.1,0,0.3-0.1,0.4c0,0.1-0.1,0.3-0.2,0.4c-0.1,0.1-0.1,0.2-0.2,0.4
						c-0.1,0.1-0.1,0.2-0.2,0.3l-2.4,4.4c-0.1,0.1-0.1,0.2-0.2,0.4c-0.1,0.1-0.1,0.3-0.2,0.4c-0.1,0.1-0.2,0.3-0.3,0.4
						c-0.1,0.1-0.2,0.1-0.3,0.1c-0.1,0-0.2,0-0.4-0.1c-0.1-0.1-0.2-0.1-0.3-0.2c-0.1-0.1-0.2-0.2-0.2-0.3c-0.1-0.1-0.1-0.2-0.1-0.4
						c0-0.2,0-0.3,0.1-0.5c0.1-0.2,0.1-0.3,0.2-0.4c0.4-0.9,0.9-1.8,1.3-2.6c0.4-0.9,0.9-1.7,1.3-2.6c-0.2-0.4-0.4-0.7-0.7-1.2
						c-0.3-0.4-0.6-0.8-0.9-1.2c-0.3-0.4-0.6-0.8-1-1.2c-0.3-0.4-0.6-0.7-0.9-1c-0.1-0.1-0.2-0.2-0.3-0.3c-0.1-0.1-0.2-0.2-0.3-0.3
						c-0.1-0.1-0.2-0.2-0.3-0.4c-0.1-0.1-0.1-0.2-0.1-0.4c0-0.1,0.1-0.2,0.2-0.3c0.1-0.1,0.3-0.1,0.4-0.2c0.2,0,0.3-0.1,0.5-0.1
						c0.2,0,0.3,0,0.4,0c0.2,0,0.4,0,0.5,0.1c0.1,0.1,0.3,0.2,0.4,0.3c0.1,0.2,0.3,0.4,0.6,0.7c0.3,0.3,0.5,0.7,0.8,1.1
						c0.3,0.4,0.6,0.8,0.9,1.3c0.3,0.4,0.6,0.9,0.9,1.3c0.3,0.4,0.5,0.8,0.6,1.1C240.2,225.3,240.3,225.5,240.3,225.7z"/>
				</g>
				<g>
					<path class="st37" d="M54.7,249.5c0,0.3,0,0.6,0,1c0,0.4,0,0.8-0.1,1.2c0,0.4-0.1,0.9-0.1,1.4c-0.1,0.5-0.1,0.9-0.2,1.4
						c-0.1,0.5-0.2,0.9-0.4,1.3c-0.2,0.4-0.4,0.8-0.6,1.1c-0.2,0.3-0.5,0.5-0.8,0.7c-0.3,0.2-0.7,0.3-1.1,0.3c-0.4,0-0.7-0.1-1-0.2
						c-0.3-0.2-0.5-0.4-0.8-0.6c-0.2-0.3-0.4-0.6-0.6-0.9c-0.2-0.3-0.3-0.7-0.4-1c-0.1-0.4-0.2-0.7-0.2-1.1c-0.1-0.4-0.1-0.7-0.2-1
						c-0.1-0.8-0.2-1.5-0.3-2.3c-0.1-0.8-0.1-1.6-0.1-2.3c0-0.8,0-1.6,0.1-2.4c0.1-0.8,0.2-1.6,0.4-2.3c0-0.1-0.1-0.1-0.1-0.2
						c0-0.1-0.1-0.2-0.1-0.2c0,0,0-0.1,0-0.1c0,0,0-0.1,0-0.1c0.1-0.3,0.2-0.7,0.4-1c0.2-0.4,0.4-0.7,0.6-1c0.2-0.3,0.5-0.5,0.8-0.7
						c0.3-0.2,0.7-0.3,1.1-0.3c0.3,0,0.6,0.1,0.9,0.2c0.3,0.1,0.5,0.3,0.7,0.5c0.2,0.2,0.4,0.5,0.5,0.7c0.1,0.3,0.3,0.6,0.4,0.9
						c0.1,0.3,0.2,0.6,0.3,0.9c0.1,0.3,0.1,0.6,0.2,0.9c0.2,0.9,0.3,1.8,0.4,2.7C54.7,247.7,54.7,248.6,54.7,249.5z M50.4,243.3
						c-0.1,0.3-0.3,0.7-0.4,1.1c-0.1,0.4-0.2,0.8-0.2,1.2c0,0.4-0.1,0.8-0.1,1.3c0,0.4,0,0.8,0,1.2c0,0.1,0,0.4,0,0.7
						c0,0.3,0,0.7,0.1,1.1c0,0.4,0.1,0.9,0.1,1.3c0,0.5,0.1,1,0.2,1.4c0.1,0.5,0.1,0.9,0.2,1.4c0.1,0.4,0.2,0.8,0.3,1.2
						c0.1,0.3,0.2,0.6,0.4,0.8c0.1,0.2,0.3,0.3,0.4,0.3c0.1,0,0.2-0.1,0.3-0.2c0.1-0.1,0.2-0.2,0.3-0.4c0.1-0.1,0.1-0.3,0.2-0.4
						c0.1-0.1,0.1-0.3,0.1-0.3c0.2-0.8,0.4-1.5,0.5-2.3c0.1-0.8,0.1-1.6,0.1-2.4c0-0.6,0-1.2,0-1.9c0-0.7-0.1-1.3-0.2-2
						c-0.1-0.7-0.2-1.3-0.3-2c-0.1-0.6-0.3-1.3-0.5-1.8c-0.1-0.2-0.1-0.4-0.2-0.6c-0.1-0.2-0.2-0.3-0.3-0.5c0,0-0.1,0.1-0.2,0.3
						c-0.1,0.2-0.2,0.4-0.3,0.6c-0.1,0.2-0.2,0.4-0.3,0.6C50.4,243.1,50.4,243.3,50.4,243.3z"/>
					<path class="st37" d="M59.8,256.9c0,0.2-0.1,0.3-0.2,0.4c-0.1,0.1-0.3,0.1-0.4,0.1c-0.1,0-0.3,0-0.4,0c-0.2,0-0.3-0.1-0.4-0.1
						c-0.2-0.1-0.3-0.2-0.4-0.3c-0.1-0.1-0.1-0.2-0.2-0.3c0-0.1,0-0.2,0-0.4c0-0.1,0-0.3,0-0.4c-0.1-2.5-0.3-5-0.4-7.5
						c-0.1-2.5-0.1-5-0.1-7.5c0-0.2,0-0.3,0.1-0.4c0-0.1,0.2-0.1,0.4-0.1c0.2,0,0.4,0.1,0.7,0.2c0.2,0.1,0.4,0.3,0.5,0.5
						c0,0.1,0.1,0.2,0.1,0.3c0,0.2,0,0.3,0,0.5c0,0.2,0,0.3,0,0.5c0,0.2,0,0.3,0,0.4c0.1,2.1,0.1,4.2,0.2,6.3
						c0.1,2.1,0.2,4.2,0.4,6.3c0,0.3,0.1,0.6,0.1,0.8C59.8,256.3,59.8,256.6,59.8,256.9z"/>
					<path class="st37" d="M68.9,249.5c0,0.3,0,0.6,0,1c0,0.4,0,0.8-0.1,1.2c0,0.4-0.1,0.9-0.1,1.4c-0.1,0.5-0.1,0.9-0.2,1.4
						c-0.1,0.5-0.2,0.9-0.4,1.3c-0.2,0.4-0.4,0.8-0.6,1.1c-0.2,0.3-0.5,0.5-0.8,0.7c-0.3,0.2-0.7,0.3-1.1,0.3c-0.4,0-0.7-0.1-1-0.2
						c-0.3-0.2-0.5-0.4-0.8-0.6c-0.2-0.3-0.4-0.6-0.6-0.9c-0.2-0.3-0.3-0.7-0.4-1c-0.1-0.4-0.2-0.7-0.3-1.1c-0.1-0.4-0.1-0.7-0.2-1
						c-0.1-0.8-0.2-1.5-0.3-2.3c-0.1-0.8-0.1-1.6-0.1-2.3c0-0.8,0-1.6,0.1-2.4c0.1-0.8,0.2-1.6,0.4-2.3c0-0.1-0.1-0.1-0.1-0.2
						c0-0.1-0.1-0.2-0.1-0.2c0,0,0-0.1,0-0.1c0,0,0-0.1,0-0.1c0.1-0.3,0.2-0.7,0.4-1c0.2-0.4,0.4-0.7,0.6-1c0.2-0.3,0.5-0.5,0.8-0.7
						c0.3-0.2,0.7-0.3,1.1-0.3c0.3,0,0.6,0.1,0.9,0.2c0.3,0.1,0.5,0.3,0.7,0.5c0.2,0.2,0.4,0.5,0.5,0.7c0.1,0.3,0.3,0.6,0.4,0.9
						c0.1,0.3,0.2,0.6,0.3,0.9c0.1,0.3,0.1,0.6,0.2,0.9c0.2,0.9,0.3,1.8,0.4,2.7C68.9,247.7,68.9,248.6,68.9,249.5z M64.5,243.3
						c-0.1,0.3-0.3,0.7-0.4,1.1c-0.1,0.4-0.2,0.8-0.2,1.2c0,0.4-0.1,0.8-0.1,1.3c0,0.4,0,0.8,0,1.2c0,0.1,0,0.4,0,0.7
						c0,0.3,0,0.7,0.1,1.1c0,0.4,0.1,0.9,0.1,1.3c0,0.5,0.1,1,0.2,1.4c0.1,0.5,0.1,0.9,0.2,1.4c0.1,0.4,0.2,0.8,0.3,1.2
						c0.1,0.3,0.2,0.6,0.4,0.8c0.1,0.2,0.3,0.3,0.4,0.3c0.1,0,0.2-0.1,0.3-0.2c0.1-0.1,0.2-0.2,0.2-0.4c0.1-0.1,0.1-0.3,0.2-0.4
						c0.1-0.1,0.1-0.3,0.1-0.3c0.2-0.8,0.4-1.5,0.5-2.3c0.1-0.8,0.1-1.6,0.1-2.4c0-0.6,0-1.2,0-1.9c0-0.7-0.1-1.3-0.2-2
						c-0.1-0.7-0.2-1.3-0.3-2c-0.1-0.6-0.3-1.3-0.5-1.8c-0.1-0.2-0.1-0.4-0.2-0.6c-0.1-0.2-0.2-0.3-0.3-0.5c0,0-0.1,0.1-0.2,0.3
						c-0.1,0.2-0.2,0.4-0.3,0.6c-0.1,0.2-0.2,0.4-0.3,0.6C64.6,243.1,64.6,243.3,64.5,243.3z"/>
					<path class="st37" d="M74,256.9c0,0.2-0.1,0.3-0.2,0.4c-0.1,0.1-0.3,0.1-0.4,0.1c-0.1,0-0.3,0-0.4,0c-0.2,0-0.3-0.1-0.4-0.1
						c-0.2-0.1-0.3-0.2-0.4-0.3c-0.1-0.1-0.1-0.2-0.2-0.3c0-0.1,0-0.2,0-0.4c0-0.1,0-0.3,0-0.4c-0.1-2.5-0.3-5-0.4-7.5
						c-0.1-2.5-0.1-5-0.1-7.5c0-0.2,0-0.3,0.1-0.4c0-0.1,0.2-0.1,0.4-0.1c0.2,0,0.4,0.1,0.7,0.2c0.2,0.1,0.4,0.3,0.5,0.5
						c0,0.1,0.1,0.2,0.1,0.3c0,0.2,0,0.3,0,0.5c0,0.2,0,0.3,0,0.5c0,0.2,0,0.3,0,0.4c0.1,2.1,0.1,4.2,0.2,6.3
						c0.1,2.1,0.2,4.2,0.4,6.3c0,0.3,0.1,0.6,0.1,0.8C74,256.3,74,256.6,74,256.9z"/>
					<path class="st37" d="M83.1,249.5c0,0.3,0,0.6,0,1c0,0.4,0,0.8-0.1,1.2c0,0.4-0.1,0.9-0.1,1.4c-0.1,0.5-0.1,0.9-0.2,1.4
						c-0.1,0.5-0.2,0.9-0.4,1.3c-0.2,0.4-0.4,0.8-0.6,1.1c-0.2,0.3-0.5,0.5-0.8,0.7c-0.3,0.2-0.7,0.3-1.1,0.3c-0.4,0-0.7-0.1-1-0.2
						c-0.3-0.2-0.5-0.4-0.8-0.6c-0.2-0.3-0.4-0.6-0.6-0.9c-0.2-0.3-0.3-0.7-0.4-1c-0.1-0.4-0.2-0.7-0.3-1.1c-0.1-0.4-0.1-0.7-0.2-1
						c-0.1-0.8-0.2-1.5-0.3-2.3c-0.1-0.8-0.1-1.6-0.1-2.3c0-0.8,0-1.6,0.1-2.4c0.1-0.8,0.2-1.6,0.4-2.3c0-0.1-0.1-0.1-0.1-0.2
						c0-0.1-0.1-0.2-0.1-0.2c0,0,0-0.1,0-0.1c0,0,0-0.1,0-0.1c0.1-0.3,0.2-0.7,0.4-1c0.2-0.4,0.4-0.7,0.6-1c0.2-0.3,0.5-0.5,0.8-0.7
						c0.3-0.2,0.7-0.3,1.1-0.3c0.3,0,0.6,0.1,0.9,0.2c0.3,0.1,0.5,0.3,0.7,0.5c0.2,0.2,0.4,0.5,0.5,0.7c0.1,0.3,0.3,0.6,0.4,0.9
						c0.1,0.3,0.2,0.6,0.3,0.9c0.1,0.3,0.1,0.6,0.2,0.9c0.2,0.9,0.3,1.8,0.4,2.7C83,247.7,83.1,248.6,83.1,249.5z M78.7,243.3
						c-0.1,0.3-0.3,0.7-0.4,1.1c-0.1,0.4-0.2,0.8-0.2,1.2c0,0.4-0.1,0.8-0.1,1.3c0,0.4,0,0.8,0,1.2c0,0.1,0,0.4,0,0.7
						c0,0.3,0,0.7,0.1,1.1c0,0.4,0.1,0.9,0.1,1.3c0,0.5,0.1,1,0.2,1.4c0.1,0.5,0.1,0.9,0.2,1.4c0.1,0.4,0.2,0.8,0.3,1.2
						c0.1,0.3,0.2,0.6,0.4,0.8c0.1,0.2,0.3,0.3,0.4,0.3c0.1,0,0.2-0.1,0.3-0.2c0.1-0.1,0.2-0.2,0.2-0.4c0.1-0.1,0.1-0.3,0.2-0.4
						c0.1-0.1,0.1-0.3,0.1-0.3c0.2-0.8,0.4-1.5,0.5-2.3c0.1-0.8,0.1-1.6,0.1-2.4c0-0.6,0-1.2,0-1.9c0-0.7-0.1-1.3-0.2-2
						c-0.1-0.7-0.2-1.3-0.3-2c-0.1-0.6-0.3-1.3-0.5-1.8c-0.1-0.2-0.1-0.4-0.2-0.6c-0.1-0.2-0.2-0.3-0.3-0.5c0,0-0.1,0.1-0.2,0.3
						c-0.1,0.2-0.2,0.4-0.3,0.6c-0.1,0.2-0.2,0.4-0.3,0.6C78.8,243.1,78.7,243.3,78.7,243.3z"/>
					<path class="st37" d="M88.2,256.9c0,0.2-0.1,0.3-0.2,0.4c-0.1,0.1-0.3,0.1-0.4,0.1c-0.1,0-0.3,0-0.4,0c-0.2,0-0.3-0.1-0.4-0.1
						c-0.2-0.1-0.3-0.2-0.4-0.3c-0.1-0.1-0.1-0.2-0.2-0.3c0-0.1,0-0.2,0-0.4c0-0.1,0-0.3,0-0.4c-0.1-2.5-0.3-5-0.4-7.5
						c-0.1-2.5-0.1-5-0.1-7.5c0-0.2,0-0.3,0.1-0.4c0-0.1,0.2-0.1,0.4-0.1c0.2,0,0.4,0.1,0.7,0.2c0.2,0.1,0.4,0.3,0.5,0.5
						c0,0.1,0.1,0.2,0.1,0.3c0,0.2,0,0.3,0,0.5c0,0.2,0,0.3,0,0.5c0,0.2,0,0.3,0,0.4c0.1,2.1,0.1,4.2,0.2,6.3
						c0.1,2.1,0.2,4.2,0.4,6.3c0,0.3,0.1,0.6,0.1,0.8C88.1,256.3,88.2,256.6,88.2,256.9z"/>
					<path class="st37" d="M93.4,256.9c0,0.2-0.1,0.3-0.2,0.4c-0.1,0.1-0.3,0.1-0.4,0.1c-0.1,0-0.3,0-0.4,0c-0.2,0-0.3-0.1-0.4-0.1
						c-0.2-0.1-0.3-0.2-0.4-0.3c-0.1-0.1-0.1-0.2-0.2-0.3c0-0.1,0-0.2,0-0.4c0-0.1,0-0.3,0-0.4c-0.1-2.5-0.3-5-0.4-7.5
						c-0.1-2.5-0.1-5-0.1-7.5c0-0.2,0-0.3,0.1-0.4c0-0.1,0.2-0.1,0.4-0.1c0.2,0,0.4,0.1,0.7,0.2c0.2,0.1,0.4,0.3,0.5,0.5
						c0,0.1,0.1,0.2,0.1,0.3c0,0.2,0,0.3,0,0.5c0,0.2,0,0.3,0,0.5c0,0.2,0,0.3,0,0.4c0.1,2.1,0.1,4.2,0.2,6.3
						c0.1,2.1,0.2,4.2,0.4,6.3c0,0.3,0.1,0.6,0.1,0.8C93.4,256.3,93.4,256.6,93.4,256.9z"/>
				</g>
				<g>
					<path class="st37" d="M360.2,83c0,0.3,0,0.6,0,1c0,0.4,0,0.8-0.1,1.2c0,0.4-0.1,0.9-0.1,1.4c-0.1,0.5-0.1,0.9-0.3,1.4
						c-0.1,0.5-0.2,0.9-0.4,1.3c-0.2,0.4-0.4,0.8-0.6,1.1c-0.2,0.3-0.5,0.5-0.8,0.7c-0.3,0.2-0.7,0.3-1.1,0.3c-0.4,0-0.7-0.1-1-0.2
						c-0.3-0.2-0.5-0.4-0.8-0.6c-0.2-0.3-0.4-0.6-0.6-0.9c-0.2-0.3-0.3-0.7-0.4-1c-0.1-0.4-0.2-0.7-0.2-1.1c-0.1-0.4-0.1-0.7-0.2-1
						c-0.1-0.8-0.2-1.5-0.3-2.3c-0.1-0.8-0.1-1.6-0.1-2.3c0-0.8,0-1.6,0.1-2.4c0.1-0.8,0.2-1.6,0.4-2.3c0-0.1-0.1-0.1-0.1-0.2
						c0-0.1-0.1-0.2-0.1-0.2c0,0,0-0.1,0-0.1c0,0,0-0.1,0-0.1c0.1-0.3,0.2-0.7,0.4-1c0.2-0.4,0.4-0.7,0.6-1c0.2-0.3,0.5-0.5,0.8-0.7
						c0.3-0.2,0.7-0.3,1.1-0.3c0.3,0,0.6,0.1,0.9,0.2c0.3,0.1,0.5,0.3,0.7,0.5c0.2,0.2,0.4,0.5,0.5,0.7c0.1,0.3,0.3,0.6,0.4,0.9
						c0.1,0.3,0.2,0.6,0.3,0.9c0.1,0.3,0.1,0.6,0.2,0.9c0.2,0.9,0.3,1.8,0.4,2.7C360.2,81.2,360.2,82.1,360.2,83z M355.8,76.8
						c-0.1,0.3-0.3,0.7-0.4,1.1c-0.1,0.4-0.2,0.8-0.2,1.2c0,0.4-0.1,0.8-0.1,1.3c0,0.4,0,0.8,0,1.2c0,0.1,0,0.4,0,0.7
						c0,0.3,0,0.7,0.1,1.1c0,0.4,0.1,0.9,0.1,1.3c0,0.5,0.1,1,0.2,1.4c0.1,0.5,0.1,0.9,0.2,1.4c0.1,0.4,0.2,0.8,0.3,1.2
						c0.1,0.3,0.2,0.6,0.4,0.8c0.1,0.2,0.3,0.3,0.4,0.3c0.1,0,0.2-0.1,0.3-0.2c0.1-0.1,0.2-0.2,0.3-0.4c0.1-0.1,0.1-0.3,0.2-0.4
						c0.1-0.1,0.1-0.3,0.1-0.3c0.2-0.8,0.4-1.5,0.5-2.3c0.1-0.8,0.1-1.6,0.1-2.4c0-0.6,0-1.2,0-1.9c0-0.7-0.1-1.3-0.2-2
						c-0.1-0.7-0.2-1.3-0.3-2c-0.1-0.6-0.3-1.3-0.5-1.8c-0.1-0.2-0.1-0.4-0.2-0.6c-0.1-0.2-0.2-0.3-0.3-0.5c0,0-0.1,0.1-0.2,0.3
						c-0.1,0.2-0.2,0.4-0.3,0.6c-0.1,0.2-0.2,0.4-0.3,0.6C355.9,76.6,355.9,76.8,355.8,76.8z"/>
					<path class="st37" d="M365.3,90.4c0,0.2-0.1,0.3-0.2,0.4c-0.1,0.1-0.3,0.1-0.4,0.1c-0.1,0-0.3,0-0.4,0c-0.2,0-0.3-0.1-0.4-0.1
						c-0.2-0.1-0.3-0.2-0.4-0.3c-0.1-0.1-0.1-0.2-0.2-0.3c0-0.1,0-0.3,0-0.4s0-0.3,0-0.4c-0.1-2.5-0.3-5-0.4-7.5
						c-0.1-2.5-0.1-5-0.1-7.5c0-0.2,0-0.3,0.1-0.4c0-0.1,0.2-0.1,0.4-0.1c0.2,0,0.4,0.1,0.7,0.2c0.2,0.1,0.4,0.3,0.5,0.5
						c0,0.1,0.1,0.2,0.1,0.3c0,0.2,0,0.3,0,0.5c0,0.2,0,0.3,0,0.5c0,0.2,0,0.3,0,0.4c0.1,2.1,0.1,4.2,0.2,6.3
						c0.1,2.1,0.2,4.2,0.4,6.3c0,0.3,0.1,0.6,0.1,0.8C365.3,89.8,365.3,90.1,365.3,90.4z"/>
					<path class="st37" d="M374.4,83c0,0.3,0,0.6,0,1c0,0.4,0,0.8-0.1,1.2c0,0.4-0.1,0.9-0.1,1.4c-0.1,0.5-0.1,0.9-0.3,1.4
						c-0.1,0.5-0.2,0.9-0.4,1.3c-0.2,0.4-0.4,0.8-0.6,1.1c-0.2,0.3-0.5,0.5-0.8,0.7c-0.3,0.2-0.7,0.3-1.1,0.3c-0.4,0-0.7-0.1-1-0.2
						c-0.3-0.2-0.5-0.4-0.8-0.6c-0.2-0.3-0.4-0.6-0.6-0.9c-0.2-0.3-0.3-0.7-0.4-1c-0.1-0.4-0.2-0.7-0.3-1.1c-0.1-0.4-0.1-0.7-0.2-1
						c-0.1-0.8-0.2-1.5-0.3-2.3c-0.1-0.8-0.1-1.6-0.1-2.3c0-0.8,0-1.6,0.1-2.4c0.1-0.8,0.2-1.6,0.4-2.3c0-0.1-0.1-0.1-0.1-0.2
						c0-0.1-0.1-0.2-0.1-0.2c0,0,0-0.1,0-0.1c0,0,0-0.1,0-0.1c0.1-0.3,0.2-0.7,0.4-1c0.2-0.4,0.4-0.7,0.6-1c0.2-0.3,0.5-0.5,0.8-0.7
						c0.3-0.2,0.7-0.3,1.1-0.3c0.3,0,0.6,0.1,0.9,0.2c0.3,0.1,0.5,0.3,0.7,0.5c0.2,0.2,0.4,0.5,0.5,0.7c0.1,0.3,0.3,0.6,0.4,0.9
						c0.1,0.3,0.2,0.6,0.3,0.9c0.1,0.3,0.1,0.6,0.2,0.9c0.2,0.9,0.3,1.8,0.4,2.7C374.3,81.2,374.4,82.1,374.4,83z M370,76.8
						c-0.1,0.3-0.3,0.7-0.4,1.1c-0.1,0.4-0.2,0.8-0.2,1.2c0,0.4-0.1,0.8-0.1,1.3c0,0.4,0,0.8,0,1.2c0,0.1,0,0.4,0,0.7
						c0,0.3,0,0.7,0.1,1.1c0,0.4,0.1,0.9,0.1,1.3c0,0.5,0.1,1,0.2,1.4c0.1,0.5,0.1,0.9,0.2,1.4c0.1,0.4,0.2,0.8,0.3,1.2
						c0.1,0.3,0.2,0.6,0.4,0.8c0.1,0.2,0.3,0.3,0.4,0.3c0.1,0,0.2-0.1,0.3-0.2c0.1-0.1,0.2-0.2,0.2-0.4c0.1-0.1,0.1-0.3,0.2-0.4
						c0.1-0.1,0.1-0.3,0.1-0.3c0.2-0.8,0.4-1.5,0.5-2.3c0.1-0.8,0.1-1.6,0.1-2.4c0-0.6,0-1.2,0-1.9c0-0.7-0.1-1.3-0.2-2
						c-0.1-0.7-0.2-1.3-0.3-2c-0.1-0.6-0.3-1.3-0.5-1.8c-0.1-0.2-0.1-0.4-0.2-0.6c-0.1-0.2-0.2-0.3-0.3-0.5c0,0-0.1,0.1-0.2,0.3
						c-0.1,0.2-0.2,0.4-0.3,0.6c-0.1,0.2-0.2,0.4-0.3,0.6C370.1,76.6,370,76.8,370,76.8z"/>
					<path class="st37" d="M379.5,90.4c0,0.2-0.1,0.3-0.2,0.4c-0.1,0.1-0.3,0.1-0.4,0.1c-0.1,0-0.3,0-0.4,0c-0.2,0-0.3-0.1-0.4-0.1
						c-0.2-0.1-0.3-0.2-0.4-0.3c-0.1-0.1-0.1-0.2-0.2-0.3c0-0.1,0-0.3,0-0.4s0-0.3,0-0.4c-0.1-2.5-0.3-5-0.4-7.5
						c-0.1-2.5-0.1-5-0.1-7.5c0-0.2,0-0.3,0.1-0.4c0-0.1,0.2-0.1,0.4-0.1c0.2,0,0.4,0.1,0.7,0.2c0.2,0.1,0.4,0.3,0.5,0.5
						c0,0.1,0.1,0.2,0.1,0.3c0,0.2,0,0.3,0,0.5c0,0.2,0,0.3,0,0.5c0,0.2,0,0.3,0,0.4c0.1,2.1,0.1,4.2,0.2,6.3
						c0.1,2.1,0.2,4.2,0.4,6.3c0,0.3,0.1,0.6,0.1,0.8C379.4,89.8,379.5,90.1,379.5,90.4z"/>
					<path class="st37" d="M388.5,83c0,0.3,0,0.6,0,1c0,0.4,0,0.8-0.1,1.2c0,0.4-0.1,0.9-0.1,1.4c-0.1,0.5-0.1,0.9-0.2,1.4
						c-0.1,0.5-0.2,0.9-0.4,1.3c-0.2,0.4-0.4,0.8-0.6,1.1c-0.2,0.3-0.5,0.5-0.8,0.7c-0.3,0.2-0.7,0.3-1.1,0.3c-0.4,0-0.7-0.1-1-0.2
						c-0.3-0.2-0.5-0.4-0.8-0.6c-0.2-0.3-0.4-0.6-0.6-0.9c-0.2-0.3-0.3-0.7-0.4-1c-0.1-0.4-0.2-0.7-0.3-1.1c-0.1-0.4-0.1-0.7-0.2-1
						c-0.1-0.8-0.2-1.5-0.3-2.3c-0.1-0.8-0.1-1.6-0.1-2.3c0-0.8,0-1.6,0.1-2.4c0.1-0.8,0.2-1.6,0.4-2.3c0-0.1-0.1-0.1-0.1-0.2
						c0-0.1-0.1-0.2-0.1-0.2c0,0,0-0.1,0-0.1c0,0,0-0.1,0-0.1c0.1-0.3,0.2-0.7,0.4-1c0.2-0.4,0.4-0.7,0.6-1c0.2-0.3,0.5-0.5,0.8-0.7
						c0.3-0.2,0.7-0.3,1.1-0.3c0.3,0,0.6,0.1,0.9,0.2c0.3,0.1,0.5,0.3,0.7,0.5c0.2,0.2,0.4,0.5,0.5,0.7c0.1,0.3,0.3,0.6,0.4,0.9
						c0.1,0.3,0.2,0.6,0.3,0.9c0.1,0.3,0.1,0.6,0.2,0.9c0.2,0.9,0.3,1.8,0.4,2.7C388.5,81.2,388.5,82.1,388.5,83z M384.2,76.8
						c-0.1,0.3-0.3,0.7-0.4,1.1c-0.1,0.4-0.2,0.8-0.2,1.2c0,0.4-0.1,0.8-0.1,1.3c0,0.4,0,0.8,0,1.2c0,0.1,0,0.4,0,0.7
						c0,0.3,0,0.7,0.1,1.1c0,0.4,0.1,0.9,0.1,1.3c0,0.5,0.1,1,0.2,1.4c0.1,0.5,0.1,0.9,0.2,1.4c0.1,0.4,0.2,0.8,0.3,1.2
						c0.1,0.3,0.2,0.6,0.4,0.8c0.1,0.2,0.3,0.3,0.4,0.3c0.1,0,0.2-0.1,0.3-0.2c0.1-0.1,0.2-0.2,0.3-0.4c0.1-0.1,0.1-0.3,0.2-0.4
						c0.1-0.1,0.1-0.3,0.1-0.3c0.2-0.8,0.4-1.5,0.5-2.3c0.1-0.8,0.1-1.6,0.1-2.4c0-0.6,0-1.2,0-1.9c0-0.7-0.1-1.3-0.2-2
						c-0.1-0.7-0.2-1.3-0.3-2c-0.1-0.6-0.3-1.3-0.5-1.8c-0.1-0.2-0.1-0.4-0.2-0.6c-0.1-0.2-0.2-0.3-0.3-0.5c0,0-0.1,0.1-0.2,0.3
						c-0.1,0.2-0.2,0.4-0.3,0.6c-0.1,0.2-0.2,0.4-0.3,0.6C384.3,76.6,384.2,76.8,384.2,76.8z"/>
					<path class="st37" d="M393.6,90.4c0,0.2-0.1,0.3-0.2,0.4c-0.1,0.1-0.3,0.1-0.4,0.1c-0.1,0-0.3,0-0.4,0c-0.2,0-0.3-0.1-0.4-0.1
						c-0.2-0.1-0.3-0.2-0.4-0.3c-0.1-0.1-0.1-0.2-0.2-0.3c0-0.1,0-0.3,0-0.4s0-0.3,0-0.4c-0.1-2.5-0.3-5-0.4-7.5
						c-0.1-2.5-0.1-5-0.1-7.5c0-0.2,0-0.3,0.1-0.4c0-0.1,0.2-0.1,0.4-0.1c0.2,0,0.4,0.1,0.7,0.2c0.2,0.1,0.4,0.3,0.5,0.5
						c0,0.1,0.1,0.2,0.1,0.3c0,0.2,0,0.3,0,0.5c0,0.2,0,0.3,0,0.5c0,0.2,0,0.3,0,0.4c0.1,2.1,0.1,4.2,0.2,6.3
						c0.1,2.1,0.2,4.2,0.4,6.3c0,0.3,0.1,0.6,0.1,0.8C393.6,89.8,393.6,90.1,393.6,90.4z"/>
					<path class="st37" d="M398.9,90.4c0,0.2-0.1,0.3-0.2,0.4c-0.1,0.1-0.3,0.1-0.4,0.1c-0.1,0-0.3,0-0.4,0c-0.2,0-0.3-0.1-0.4-0.1
						c-0.2-0.1-0.3-0.2-0.4-0.3c-0.1-0.1-0.1-0.2-0.2-0.3c0-0.1,0-0.3,0-0.4s0-0.3,0-0.4c-0.1-2.5-0.3-5-0.4-7.5
						c-0.1-2.5-0.1-5-0.1-7.5c0-0.2,0-0.3,0.1-0.4c0-0.1,0.2-0.1,0.4-0.1c0.2,0,0.4,0.1,0.7,0.2c0.2,0.1,0.4,0.3,0.5,0.5
						c0,0.1,0.1,0.2,0.1,0.3c0,0.2,0,0.3,0,0.5c0,0.2,0,0.3,0,0.5c0,0.2,0,0.3,0,0.4c0.1,2.1,0.1,4.2,0.2,6.3
						c0.1,2.1,0.2,4.2,0.4,6.3c0,0.3,0.1,0.6,0.1,0.8C398.9,89.8,398.9,90.1,398.9,90.4z"/>
				</g>
				<g>
					<path class="st37" d="M253,42c-2.4-2.4-5.6-4.1-8.9-4.3c-3.6-0.2-7,1.8-9.5,4.3c-2.9,3-3,7.5-1.4,11.1c1,2.2,2.7,3.9,4.3,5.7
						c2.3,2.7,2.7,5.6,2.1,9c-0.3,1.5-0.5,3,0.6,4.3c0.3,2.2,1.5,4.1,4,3.8c1.8-0.2,3.7-2.3,3.7-4.2c0.7-1.2,0.5-2.5,0.3-3.9
						c-0.6-3.4-0.2-6.3,2.1-9c1.5-1.8,3.3-3.5,4.3-5.7C256.1,49.4,255.9,44.9,253,42z M244.3,74.7c-1.7,0.6-2.6-0.6-3.1-1.9
						c0.8,0.3,1.8,0.3,2.7,0c0.7,0.2,1.6,0.2,2.3,0.1C245.8,73.7,245.3,74.3,244.3,74.7z M244.1,68.6c0,0.9-0.3,2.5,0.6,3.1
						c0,0,0,0,0.1,0c0,0,0,0-0.1,0c-0.1,0-0.2-0.1-0.2,0c-0.2,0-0.4,0.1-0.6,0.1c-0.1,0-0.2,0-0.3,0c0.4-5-0.2-10.1-0.5-15.1
						c-0.1-1.1-0.2-2.3-0.5-3.5c0.4,0,1,0.1,1.5,0.1c0.1,1.3,0.2,2.6,0.1,3.5C244,60.7,244.3,64.6,244.1,68.6z M252.7,53.6
						c-2,3.4-5.5,5.6-6.2,9.8c-0.3,2,0.2,3.8,0.4,5.8c0.1,0.9,0.1,2-1,2.3c-0.1,0-0.3,0.1-0.5,0.1c0-0.1,0-0.2-0.1-0.2
						c0.1-0.2,0-0.5-0.2-0.6c-0.1-0.1,0.1-1.8,0.1-2.1c0.1-0.9,0.2-1.7,0.3-2.6c0.2-3.3-0.2-6.6,0-9.8c0-0.7-0.1-1.8-0.1-2.9
						c2.3-0.1,4.6-0.8,4.9-3.1c0.3-2.4-2.7-3.6-4.5-2.6c-1.4,0.7-1.8,2.5-1.8,4.4c-0.6,0-1.2-0.1-1.9-0.1c-0.4-1.3-1.1-2.6-2-3.7
						c-1.5-1.7-4.2-0.3-3.6,2c0.5,1.8,2.6,2.6,4.4,2.9c0.7,2.8,0.7,5.7,1,8.5c0.3,3.4,0.2,6.8,0.4,10.2c-0.3,0-0.5-0.1-0.8-0.2
						c-1.1-0.3-1-1.5-1-2.3c0.1-1.9,0.7-3.8,0.4-5.8c-0.7-4.1-4.2-6.3-6.2-9.8c-2-3.5-2.2-7.7,0.6-10.8c3-3.4,8.5-4.2,12.6-2.6
						c1.5,0.6,2.9,1.4,4,2.6C254.9,46,254.7,50.2,252.7,53.6z M245.5,51.9c0-1.5,0.3-3,1.5-3.3c1.1-0.4,2.7,0.8,1.8,1.9
						C248,51.5,246.7,51.8,245.5,51.9z M240.5,51.4c-0.8-0.2-1.6-0.6-2.2-1.1c-0.5-0.4-0.4-1.2,0.1-1.6c0.2-0.2,0.8,0.5,0.9,0.7
						C239.8,49.9,240.2,50.7,240.5,51.4z"/>
					<path class="st37" d="M229.6,57.6c-1.3,0.3-2.6,1.2-3.6,2.2c-0.3,0.3,0.1,0.8,0.5,0.6c1.2-0.7,2.8-1.1,3.5-2.3
						C230,57.8,229.8,57.5,229.6,57.6z"/>
					<path class="st37" d="M224.6,48.8c-0.7-0.2-1.5,0.1-2.2,0.2c-1,0.1-1.9,0.1-2.9,0.2c-0.6,0-0.6,1,0,1c1.3,0.1,4.6,0.9,5.3-0.7
						C224.9,49.2,224.8,48.9,224.6,48.8z"/>
					<path class="st37" d="M225.8,40.4c-0.3-1-1.8-1.6-2.6-2.1c-0.6-0.3-1.9-1-2.5-0.4c-0.2,0.3,0,0.8,0.4,0.7
						c-0.2,0.1-0.2,0,0.1,0.1c0.2,0.1,0.3,0.2,0.4,0.3c0.4,0.3,0.9,0.6,1.3,0.9c0.6,0.4,1.5,1.3,2.3,1.2
						C225.6,41.1,225.9,40.8,225.8,40.4z"/>
					<path class="st37" d="M233.6,29.6c-0.1-0.4-0.5-1.3-0.9-1.7c-0.1-0.1-0.2-0.1-0.3-0.2c0,0-0.1,0-0.1,0v0c0-0.1-0.2-0.1-0.4,0
						c-0.2,0.1-0.2,0.3-0.2,0.4c-0.1,0.8,0.5,1.8,0.7,2.5c0.3,1.3,0.5,2.9,1.7,3.6c0.3,0.1,0.6,0,0.6-0.3
						C234.8,32.5,234.1,30.9,233.6,29.6z"/>
					<path class="st37" d="M247.1,28.8c0-1-0.1-2-0.7-2.8c-0.3-0.4-1,0-0.8,0.5c0.3,0.9,0.1,2,0.1,2.9c-0.1,0.8-0.3,1.8,0.4,2.3
						c0.1,0.1,0.3,0.1,0.5,0C247.3,31.3,247.1,29.7,247.1,28.8z"/>
					<path class="st37" d="M261.6,31.5c-0.8-0.7-1.9,0.3-2.5,0.8c-0.9,0.7-1.7,1.6-2.4,2.5c-0.4,0.5,0.5,1.2,0.9,0.7
						c0.8-0.9,1.7-1.6,2.6-2.2C260.6,33,262.4,32.1,261.6,31.5z"/>
					<path class="st37" d="M267.1,45.3c-1.2-1.9-4.3-0.5-6-0.7c-0.5-0.1-0.6,0.8-0.1,0.9c0.9,0.3,1.9,0.3,2.8,0.3
						c0.9,0,2,0.2,2.9,0.1C267,46,267.3,45.7,267.1,45.3z"/>
					<path class="st37" d="M261.4,59.5c-0.3-0.6-1.2-1-1.7-1.4c-0.7-0.5-1.4-0.7-2.2-0.7c-0.6,0-0.7,0.8-0.1,1
						c0.7,0.2,1.2,0.7,1.8,1.1c0.5,0.4,1.1,1,1.8,0.9C261.3,60.3,261.6,59.9,261.4,59.5z"/>
				</g>
			</g>
			<g>
				<g>
					<path class="st38" d="M277.1,91.1h-50.6c-3.3,0-6.2,3.1-6.2,6.4v39c0,3.3,2.9,5.6,6.2,5.6h14.7l-3.5,10.4l12.9-10.4h26.5
						c3.3,0,6.2-2.3,6.2-5.6v-39C283.4,94.1,280.4,91.1,277.1,91.1z"/>
					<path class="st16" d="M270.4,119.1v-8h-4.5c-0.3-1-0.7-2.1-1.3-3l3.4-3.4l-5.6-5.6l-3.2,3.4c-1-0.5-1.8-0.9-2.8-1.2v-4.2h-7
						v4.3c-2,0.3-2.8,0.8-3.7,1.3l-3.6-3.3l-5.7,5.6l3.2,3.6c-0.5,1-1,2.5-1.3,3.5h-3.9v7h4c0.3,1,0.8,2.3,1.4,3.2l-3.2,3.3l5.6,5.6
						l3.8-3.3c1,0.5,2.5,0.9,3.5,1.2v5h7v-5.2c1-0.3,2.1-0.8,3-1.3l3.4,3.3l5.6-5.6l-3.5-3.4c0.5-0.9,0.9-1.9,1.2-2.9H270.4z
						 M242.8,115.1c0-5.1,4.2-9.3,9.3-9.3c5.1,0,9.3,4.2,9.3,9.3c0,5.1-4.2,9.3-9.3,9.3C247,124.4,242.8,120.3,242.8,115.1z"/>
				</g>
				<g>
					<path class="st39" d="M59.1,104.1h50.6c3.3,0,6.7,2.2,6.7,5.5v39c0,3.3-3.4,5.5-6.7,5.5H95l3.5,10.4l-12.9-10.4H59.1
						c-3.3,0-5.7-2.2-5.7-5.5v-39C53.4,106.2,55.8,104.1,59.1,104.1z"/>
					<g>
						<g>
							<path class="st16" d="M66.9,135.1h-2.9v-12.6h2.9v5H71v-5h2.9v12.6H71v-5h-4.1V135.1z"/>
							<path class="st16" d="M74.5,122.6h8.8v2.5h-3v10.1h-2.9v-10.1h-3V122.6z"/>
							<path class="st16" d="M94.6,127.7L94.6,127.7l-2.7,7.4h-1.7l-2.6-7.4h-0.1l-0.6,7.4h-2.9l1.1-12.6h3l2.8,7.3l2.8-7.3h3
								l1.1,12.6h-2.9L94.6,127.7z"/>
							<path class="st16" d="M102.4,132.6h4.3v2.5h-7.2v-12.6h2.9V132.6z"/>
						</g>
					</g>
				</g>
				<g>
					<path class="st40" d="M131.3,57.1h50.6c3.3,0,6.5,2.9,6.5,6.2v39c0,3.3-3.2,4.8-6.5,4.8h-14.7l3.5,10.4l-12.9-10.4h-26.5
						c-3.3,0-5.9-1.5-5.9-4.8v-39C125.4,60,128,57.1,131.3,57.1z"/>
					<g>
						<g>
							<path class="st16" d="M148,86.7l1.6,3.2c0,0-1.9,1.5-5.5,1.5c-4.7,0-9.1-3.9-9.1-8.6c0-4.8,4.3-8.7,9.1-8.7
								c3.6,0,5.5,1.5,5.5,1.5l-1.6,3.2c0,0-1.3-1-3.3-1c-3.8,0-5.5,2.7-5.5,4.9c0,2.3,1.7,4.9,5.5,4.9
								C146.6,87.7,148,86.7,148,86.7z"/>
							<path class="st16" d="M162.9,75.7l-1.5,3c0,0-1.7-1.2-3.4-1.2c-1.3,0-2,0.6-2,1.5c0,0.9,1.6,1.6,3.5,2.4
								c1.9,0.8,3.9,2.4,3.9,4.6c0,4-3,5.4-6.3,5.4c-3.9,0-6.3-2.2-6.3-2.2l1.9-3.2c0,0,2.2,1.9,4.1,1.9c0.8,0,2.4-0.1,2.4-1.6
								c0-1.2-1.8-1.8-3.8-2.8c-2-1-3.2-2.6-3.2-4.3c0-3.1,2.8-5.1,5.5-5.1C160.8,74.1,162.9,75.7,162.9,75.7z"/>
							<path class="st16" d="M176.6,75.7l-1.5,3c0,0-1.7-1.2-3.4-1.2c-1.3,0-2,0.6-2,1.5c0,0.9,1.6,1.6,3.5,2.4
								c1.9,0.8,3.9,2.4,3.9,4.6c0,4-3,5.4-6.3,5.4c-3.9,0-6.3-2.2-6.3-2.2l1.9-3.2c0,0,2.2,1.9,4.1,1.9c0.8,0,2.4-0.1,2.4-1.6
								c0-1.2-1.8-1.8-3.8-2.8c-2-1-3.2-2.6-3.2-4.3c0-3.1,2.8-5.1,5.5-5.1C174.5,74.1,176.6,75.7,176.6,75.7z"/>
						</g>
					</g>
				</g>
				<g>
					<path class="st41" d="M72.1,174.1h50.6c3.3,0,6.7,2.2,6.7,5.5v39c0,3.3-3.4,5.5-6.7,5.5H108l3.5,10.4l-12.9-10.4H72.1
						c-3.3,0-6.7-2.2-6.7-5.5v-39C65.4,176.2,68.8,174.1,72.1,174.1z"/>
					<g>
						<g>
							<path class="st16" d="M90.4,203.1l1.6,3.2c0,0-1.9,1.5-5.5,1.5c-4.7,0-9.1-3.9-9.1-8.6c0-4.8,4.3-8.7,9.1-8.7
								c3.6,0,5.5,1.5,5.5,1.5l-1.6,3.2c0,0-1.3-1-3.3-1c-3.8,0-5.5,2.7-5.5,4.9c0,2.3,1.7,4.9,5.5,4.9
								C89,204.1,90.4,203.1,90.4,203.1z"/>
							<path class="st16" d="M97.6,204.4v-3.7H94v-3.1h3.7V194h3.1v3.7h3.7v3.1h-3.7v3.7H97.6z"/>
							<path class="st16" d="M111,204.4v-3.7h-3.7v-3.1h3.7V194h3.1v3.7h3.7v3.1h-3.7v3.7H111z"/>
						</g>
					</g>
				</g>
				<g>
					<path class="st42" d="M56.9,333.1h50.6c3.3,0,6.9-3.1,6.9-6.4v-39c0-3.3-3.6-6.5-6.9-6.5H92.8l3.5-10.4l-12.9,10.4H56.9
						c-3.3,0-5.6,3.2-5.6,6.5v39C51.4,329.9,53.6,333.1,56.9,333.1z"/>
					<g>
						<g>
							<path class="st16" d="M78.9,311.8c0,4-2.3,6.1-6.3,6.1c-2.9,0-4.7-1.9-4.7-1.9l1.5-3.8c0,0,1.4,1.4,2.6,1.4
								c1.3,0,2.3-0.8,2.3-2.8v-13.3h4.6V311.8z"/>
							<path class="st16" d="M95.4,298.9l-1.9,3.7c0,0-2-1.4-4.1-1.4c-1.6,0-2.4,0.7-2.4,1.8c0,1.1,1.9,1.9,4.2,2.9
								c2.3,1,4.7,2.9,4.7,5.5c0,4.8-3.7,6.5-7.6,6.5c-4.7,0-7.6-2.7-7.6-2.7l2.3-3.9c0,0,2.7,2.3,4.9,2.3c1,0,2.9-0.1,2.9-2
								c0-1.5-2.2-2.1-4.6-3.3c-2.4-1.2-3.8-3.1-3.8-5.2c0-3.8,3.3-6.2,6.6-6.2C92.8,297,95.4,298.9,95.4,298.9z"/>
						</g>
					</g>
				</g>
			</g>
		</g>
	</g>
</g>
<g id="DESIGNED_BY_FREEPIK" class="st0">
	<g class="st43">
		<g id="XMLID_319_">
			<g id="XMLID_338_">
				<path id="XMLID_346_" class="st44" d="M260.1,465.5c-0.4,0.4-0.8,0.9-1.1,1.5l-0.5-0.2c-0.1-0.3-0.3-0.5-0.7-0.5
					c-0.3,0-0.6,0.3-0.5,0.7c0,0.3,0.3,0.6,0.7,0.5c0.1,0,0.1,0,0.2-0.1l0.5,0.2c-0.3,0.6-0.4,1.1-0.5,1.7l0.7,0.1
					c0.2-1.3,0.8-2.5,1.8-3.5L260.1,465.5z"/>
				<path id="XMLID_345_" class="st44" d="M265.6,463.2c-0.2,0-0.3,0-0.5,0l-0.1-0.6c0.2-0.1,0.3-0.4,0.3-0.6c0-0.4-0.4-0.7-0.8-0.6
					c-0.4,0-0.7,0.4-0.6,0.8c0,0.3,0.2,0.5,0.4,0.6l0.1,0.6c-0.7,0.1-1.4,0.3-2.1,0.6l0.3,0.7c0.9-0.4,1.9-0.7,3-0.7
					c0.5,0,1,0.1,1.5,0.2l0.2-0.7C266.7,463.2,266.1,463.2,265.6,463.2z"/>
				<path id="XMLID_344_" class="st44" d="M272.2,465.7c0.3,0,0.6-0.3,0.5-0.7c0-0.3-0.3-0.6-0.7-0.5c-0.3,0-0.5,0.3-0.5,0.6
					l-0.4,0.4c-0.4-0.4-0.9-0.8-1.4-1.1l-0.4,0.6c1.1,0.7,2,1.7,2.6,2.9l0.7-0.3c-0.3-0.6-0.6-1.1-0.9-1.5l0.4-0.4
					C272.1,465.7,272.1,465.7,272.2,465.7z"/>
				<path id="XMLID_343_" class="st44" d="M265,473.4c-0.4,0-0.8,0-1.2,0c-0.9,0-1.7-0.1-2.5-0.2c-0.4-0.1-0.8-0.2-1.3-0.3
					c1,1.9,3.1,3.1,5.4,3.1c2.9,0,5.3-1.9,5.9-4.5c-0.7,0.4-1.5,0.8-2.5,1.1C267.8,473,266.5,473.3,265,473.4z"/>
				<path id="XMLID_339_" class="st44" d="M265.6,464.7c-3.4,0-6.1,2.7-6.1,5.9c0,0.4,0,0.8,0.1,1.3c0.7,0.5,2.7,0.9,5.3,0.7
					c2.9-0.2,5.3-1,6.7-2.2c0-0.2,0-0.4,0-0.6C271.2,466.9,268.6,464.7,265.6,464.7z M263.4,471.2c-1,0-1.8-0.8-1.8-1.8
					c0-1,0.8-1.9,1.8-1.9c1,0,1.8,0.8,1.8,1.9C265.3,470.4,264.5,471.2,263.4,471.2z M268.2,470.3c-0.8,0-1.4-0.6-1.4-1.4
					s0.6-1.4,1.4-1.4s1.4,0.6,1.4,1.4S268.9,470.3,268.2,470.3z"/>
			</g>
			<path id="XMLID_336_" class="st44" d="M281.6,466.5c-0.3-0.1-0.8-0.3-1.4-0.2c-0.6,0.1-0.8,0.3-0.8,1v0.9h2.2v1.7h-2.2v5.5h-1.9
				v-5.5h-1.3v-1.7h1.3v-0.9c0-1.7,0.9-2.8,2.6-2.8c0.6,0,1.2,0.1,1.6,0.3V466.5z"/>
			<path id="XMLID_334_" class="st44" d="M286.3,469.9c-0.2,0-0.4,0-0.5,0c-0.9,0-1.5,0.5-1.5,1.6v3.9h-1.9v-7.2h1.9v0.8
				c0.5-0.7,1.1-1,2-1c0.4,0,0.8,0.1,1.1,0.3L286.3,469.9z"/>
			<path id="XMLID_331_" class="st44" d="M294,471.8c0,0.2,0,0.5,0,0.7h-5.1c0.2,1,0.9,1.5,1.8,1.5c0.6,0,1.3-0.3,1.8-0.7l1.1,1.2
				c-0.8,0.7-1.9,1.1-3.1,1.1c-2.2,0-3.7-1.5-3.7-3.8c0-2.3,1.5-3.8,3.6-3.8C292.5,468,294,469.5,294,471.8z M288.9,471.1h3.2
				c-0.2-0.9-0.7-1.4-1.6-1.4C289.6,469.7,289,470.2,288.9,471.1z"/>
			<path id="XMLID_328_" class="st44" d="M301.6,471.8c0,0.2,0,0.5,0,0.7h-5.1c0.2,1,0.9,1.5,1.8,1.5c0.6,0,1.3-0.3,1.8-0.7l1.1,1.2
				c-0.8,0.7-1.9,1.1-3.1,1.1c-2.2,0-3.7-1.5-3.7-3.8c0-2.3,1.5-3.8,3.6-3.8C300.2,468,301.6,469.5,301.6,471.8z M296.5,471.1h3.2
				c-0.2-0.9-0.7-1.4-1.6-1.4C297.2,469.7,296.7,470.2,296.5,471.1z"/>
			<path id="XMLID_325_" class="st44" d="M310,471.8c0,2.2-1.5,3.8-3.5,3.8c-1,0-1.6-0.4-2.1-0.9v3.7h-1.9v-10.1h1.9v0.8
				c0.5-0.6,1.2-1,2.1-1C308.5,468,310,469.6,310,471.8z M304.3,471.8c0,1.1,0.7,2,1.8,2c1.1,0,1.8-0.9,1.8-2c0-1.1-0.7-2-1.8-2
				C305,469.8,304.3,470.6,304.3,471.8z"/>
			<path id="XMLID_322_" class="st44" d="M313.1,465.8c0,0.7-0.5,1.2-1.2,1.2c-0.7,0-1.2-0.5-1.2-1.2c0-0.7,0.5-1.2,1.2-1.2
				C312.5,464.6,313.1,465.1,313.1,465.8z M312.8,475.4h-1.9v-7.2h1.9V475.4z"/>
			<path id="XMLID_320_" class="st44" d="M316,470.7l2.7-2.6h2.4l-3.5,3.4l3.5,3.8h-2.4l-2.7-2.9v2.9h-1.9v-10.7h1.9V470.7z"/>
		</g>
		<g>
			<path class="st44" d="M184.4,475.3v-1.1c-0.5,0.7-1.4,1.2-2.4,1.2c-1.8,0-3.1-1.4-3.1-3.7c0-2.3,1.3-3.7,3.1-3.7
				c1,0,1.8,0.5,2.4,1.2v-3.8h1.1v9.8H184.4z M184.4,473.4v-3.2c-0.4-0.6-1.2-1.1-2.1-1.1c-1.4,0-2.3,1.2-2.3,2.7
				c0,1.6,0.8,2.7,2.3,2.7C183.2,474.5,184,474,184.4,473.4z"/>
			<path class="st44" d="M186.9,471.7c0-2.1,1.5-3.7,3.5-3.7c2.1,0,3.4,1.7,3.4,3.8v0.3h-5.7c0.1,1.3,1,2.4,2.5,2.4
				c0.8,0,1.6-0.3,2.2-0.9l0.5,0.7c-0.7,0.7-1.7,1.1-2.8,1.1C188.4,475.5,186.9,474,186.9,471.7z M190.4,468.9
				c-1.5,0-2.3,1.3-2.3,2.4h4.6C192.7,470.3,192,468.9,190.4,468.9z"/>
			<path class="st44" d="M194.6,474.4l0.6-0.8c0.5,0.5,1.4,1,2.3,1c1.1,0,1.7-0.5,1.7-1.2c0-1.7-4.4-0.7-4.4-3.3c0-1.1,1-2,2.6-2
				c1.2,0,2.1,0.5,2.6,1l-0.5,0.8c-0.4-0.5-1.2-0.9-2.1-0.9c-1,0-1.6,0.5-1.6,1.1c0,1.6,4.4,0.5,4.4,3.3c0,1.2-1,2.1-2.8,2.1
				C196.3,475.5,195.3,475.1,194.6,474.4z"/>
			<path class="st44" d="M201.5,466.5c0-0.4,0.3-0.7,0.7-0.7c0.4,0,0.7,0.3,0.7,0.7c0,0.4-0.3,0.7-0.7,0.7
				C201.8,467.2,201.5,466.9,201.5,466.5z M201.7,475.3v-7.1h1.1v7.1H201.7z"/>
			<path class="st44" d="M204.6,477.1l0.6-0.8c0.6,0.7,1.3,1,2.3,1c1.2,0,2.3-0.6,2.3-2.1v-1c-0.5,0.7-1.4,1.3-2.4,1.3
				c-1.8,0-3.1-1.4-3.1-3.7c0-2.3,1.3-3.7,3.1-3.7c1,0,1.8,0.5,2.4,1.2v-1.1h1.1v6.9c0,2.3-1.6,3.1-3.4,3.1
				C206.2,478.2,205.4,477.9,204.6,477.1z M209.7,473.3v-3.1c-0.4-0.6-1.2-1.1-2.1-1.1c-1.4,0-2.3,1.1-2.3,2.7
				c0,1.6,0.8,2.7,2.3,2.7C208.5,474.4,209.3,473.9,209.7,473.3z"/>
			<path class="st44" d="M217.4,475.3v-4.6c0-1.2-0.6-1.6-1.6-1.6c-0.9,0-1.7,0.5-2.1,1.1v5.2h-1.1v-7.1h1.1v1
				c0.5-0.6,1.5-1.2,2.5-1.2c1.5,0,2.3,0.7,2.3,2.3v5H217.4z"/>
			<path class="st44" d="M219.9,471.7c0-2.1,1.5-3.7,3.5-3.7c2.1,0,3.4,1.7,3.4,3.8v0.3h-5.7c0.1,1.3,1,2.4,2.5,2.4
				c0.8,0,1.6-0.3,2.2-0.9l0.5,0.7c-0.7,0.7-1.7,1.1-2.8,1.1C221.4,475.5,219.9,474,219.9,471.7z M223.4,468.9
				c-1.5,0-2.3,1.3-2.3,2.4h4.6C225.7,470.3,225,468.9,223.4,468.9z"/>
			<path class="st44" d="M233.4,475.3v-1.1c-0.5,0.7-1.4,1.2-2.4,1.2c-1.8,0-3.1-1.4-3.1-3.7c0-2.3,1.3-3.7,3.1-3.7
				c1,0,1.8,0.5,2.4,1.2v-3.8h1.1v9.8H233.4z M233.4,473.4v-3.2c-0.4-0.6-1.2-1.1-2.1-1.1c-1.4,0-2.3,1.2-2.3,2.7
				c0,1.6,0.8,2.7,2.3,2.7C232.1,474.5,233,474,233.4,473.4z"/>
			<path class="st44" d="M239.7,475.3v-9.8h1.1v3.8c0.6-0.8,1.4-1.2,2.4-1.2c1.8,0,3.1,1.5,3.1,3.7c0,2.3-1.3,3.7-3.1,3.7
				c-1,0-1.9-0.5-2.4-1.2v1.1H239.7z M242.9,474.5c1.4,0,2.3-1.2,2.3-2.7c0-1.6-0.8-2.7-2.3-2.7c-0.9,0-1.7,0.5-2.1,1.1v3.2
				C241.2,474,242,474.5,242.9,474.5z"/>
			<path class="st44" d="M247.5,477.1c0.2,0.1,0.4,0.1,0.6,0.1c0.5,0,0.8-0.2,1.1-0.7l0.5-1.1l-3-7.1h1.2l2.4,5.8l2.3-5.8h1.2
				l-3.5,8.5c-0.4,1-1.1,1.4-2.1,1.4c-0.2,0-0.6,0-0.8-0.1L247.5,477.1z"/>
		</g>
	</g>
</g>
</svg>
