<?xml version="1.0" encoding="utf-8"?>
<!-- Generator: Adobe Illustrator 24.1.3, SVG Export Plug-In . SVG Version: 6.00 Build 0)  -->
<svg version="1.1" xmlns="http://www.w3.org/2000/svg" xmlns:xlink="http://www.w3.org/1999/xlink" x="0px" y="0px"
	 viewBox="0 0 500 500" style="enable-background:new 0 0 500 500;" xml:space="preserve">
<style type="text/css">
	.st0{display:none;}
	.st1{display:inline;}
	.st2{fill:#BEE1F4;}
	.st3{fill:#97C6DB;}
	.st4{fill:#89BCCE;}
	.st5{fill:#112B46;}
	.st6{fill:url(#SVGID_1_);}
	.st7{fill:url(#SVGID_2_);}
	.st8{fill:url(#SVGID_3_);}
	.st9{fill:#E6E7E8;}
	.st10{fill:#7AABBC;}
	.st11{fill:#0A2033;}
	.st12{fill:#F9FBFC;}
	.st13{fill:#FBD15B;}
	.st14{fill:#FF8578;}
	.st15{fill:#1D262D;}
	.st16{fill:url(#SVGID_4_);}
	.st17{fill:#EFA78B;}
	.st18{fill:#FFC8AF;}
	.st19{fill:url(#SVGID_5_);}
	.st20{fill:#243C55;}
	.st21{fill:url(#SVGID_6_);}
	.st22{fill:url(#SVGID_7_);}
	.st23{fill:url(#SVGID_8_);}
	.st24{fill:#3030EF;}
	.st25{fill:url(#SVGID_9_);}
	.st26{fill:url(#SVGID_10_);}
	.st27{fill:url(#SVGID_11_);}
	.st28{fill:url(#SVGID_12_);}
	.st29{fill:url(#SVGID_13_);}
	.st30{fill:url(#SVGID_14_);}
	.st31{fill:url(#SVGID_15_);}
	.st32{fill:#BC8867;}
	.st33{font-family:'FiraSans-Medium';}
	.st34{font-size:16.1353px;}
	.st35{fill:#878CF0;}
	.st36{fill:#F1F2F2;}
	.st37{font-size:19.2481px;}
</style>
<g id="BACKGROUND" class="st0">
	<g class="st1">
		<rect class="st2" width="500" height="500"/>
		<path class="st3" d="M410.1,342.8l-12.9,90.8H68.4l-9.7-69.3c-1.1-7.8,3.2-15.3,10.5-18.3l29.2-12.1v-29c0-8.6,6.3-15.8,14.7-17
			l6.9-1l11.6-39.2c2.2-7.3,8.9-12.3,16.5-12.3h118.5c4.5,0,8.6,1.7,11.7,4.6c3.1,2.9,5.1,6.9,5.4,11.4l56.5,6
			c8.4,0.9,14.9,7.7,15.4,16.1l2.3,39.2l39.9,11.3C406,326.2,411.3,334.3,410.1,342.8z"/>
		<path class="st4" d="M392.5,395.5l-5.4,38.1H153.8l-3.3-23.3c-0.8-5.4,2.2-10.5,7.2-12.6l20.1-8.3v-20c0-5.9,4.3-10.9,10.1-11.7
			l4.8-0.7l8-27c1.5-5,6.1-8.5,11.4-8.5h81.6c3.1,0,5.9,1.2,8.1,3.2c2.1,2,3.5,4.7,3.8,7.8l38.9,4.1c5.8,0.6,10.3,5.3,10.6,11.1
			l1.6,26.9l27.5,7.8C389.7,384,393.3,389.6,392.5,395.5z"/>
	</g>
</g>
<g id="OBJECTS">
	<g>
		<g>
			<rect x="39.8" y="430.7" class="st3" width="421.7" height="5.8"/>
			<g>
				<g>
					<g>
						<path class="st5" d="M100.8,382.9c0,0-0.7,2-1.4,4.6c-0.7,2.5-1.5,5.6-1.6,7.7l1.2,0.1c0.1-1.9,0.9-5,1.6-7.5
							c0.4-1.3,0.7-2.4,1-3.2c0.3-0.8,0.4-1.3,0.4-1.3L100.8,382.9L100.8,382.9z"/>
						<path class="st5" d="M89.9,383.9c0,0,0,0.2,0.1,0.6c0.1,1.1,0.3,3.7,0.3,6.6c0,1.3,0,2.7-0.2,4l1.2,0.1
							c0.1-1.3,0.2-2.8,0.2-4.1c0-3.9-0.4-7.3-0.4-7.3L89.9,383.9L89.9,383.9z"/>
						<path class="st5" d="M83.9,391.9L83.9,391.9c0,0.1,0.3,0.3,0.5,0.8c0.2,0.4,0.4,1,0.4,1.5h1.2c0-0.9-0.3-1.6-0.6-2.2
							c-0.3-0.5-0.6-0.9-0.6-0.9L83.9,391.9L83.9,391.9z"/>
					</g>
					<linearGradient id="SVGID_1_" gradientUnits="userSpaceOnUse" x1="115.1876" y1="340.9726" x2="115.1876" y2="387.3046">
						<stop  offset="0" style="stop-color:#7978E0"/>
						<stop  offset="1" style="stop-color:#563FDA"/>
					</linearGradient>
					<path class="st6" d="M99.3,384.1c0,0-6.2-7.9,3.3-24.3c9.6-16.4,29.4-20.4,30.3-18.3c0.9,2.1-10,6.2-13.1,18.9
						c-3,12.6-3.4,19.6-7.3,23.4C108.8,387.6,103.7,389.1,99.3,384.1z"/>
					<linearGradient id="SVGID_2_" gradientUnits="userSpaceOnUse" x1="62.7478" y1="370.4165" x2="62.7478" y2="393.4967">
						<stop  offset="0" style="stop-color:#7978E0"/>
						<stop  offset="1" style="stop-color:#563FDA"/>
					</linearGradient>
					<path class="st7" d="M86.5,385.7c0,0-0.7-8.9-16.8-13.9c-16.1-5-31.4,4.3-30.7,6.3c0.7,1.9,10.3-2,19.9,4.4
						c9.6,6.4,14,10.7,18.8,10.9C82.4,393.7,86.7,391.6,86.5,385.7z"/>
					<linearGradient id="SVGID_3_" gradientUnits="userSpaceOnUse" x1="77.0355" y1="331.6843" x2="77.0355" y2="384.094">
						<stop  offset="0" style="stop-color:#7978E0"/>
						<stop  offset="1" style="stop-color:#563FDA"/>
					</linearGradient>
					<path class="st8" d="M96.2,379.9c0,0,10.7-11.5-1.7-30c-12.5-18.5-39.9-19.8-40.8-17.2c-0.9,2.6,10.8,7.4,15.3,21.9
						c4.5,14.5,7,21.8,11.7,26C85.4,384.7,91.5,386.1,96.2,379.9z"/>
					<g>
						<path class="st9" d="M101.9,381.7c-0.1,0-0.1,0-0.2,0c-0.3-0.1-0.5-0.4-0.4-0.7c0.3-1,7-24.7,19.3-33.8
							c0.3-0.2,0.7-0.1,0.9,0.1c0.2,0.3,0.1,0.7-0.1,0.9c-12,8.8-18.8,32.9-18.9,33.1C102.4,381.5,102.1,381.7,101.9,381.7z"/>
					</g>
					<g>
						<path class="st9" d="M89.4,378.7c-0.3,0-0.5-0.2-0.6-0.5c0-0.1,0-0.2-0.1-0.7c-0.6-8.3-4.1-36-26.4-41.9
							c-0.3-0.1-0.5-0.4-0.4-0.7c0.1-0.3,0.4-0.5,0.7-0.4c23.1,6,26.8,34.4,27.3,43c0,0.2,0,0.4,0,0.4c0.1,0.3-0.1,0.6-0.4,0.7
							C89.5,378.7,89.5,378.7,89.4,378.7z"/>
					</g>
					<g>
						<path class="st9" d="M81.9,389.7c-0.3,0-0.5-0.2-1.4-1.1c-10-9.1-19.7-13.4-28.7-12.8c-0.3,0-0.6-0.2-0.6-0.6
							c0-0.3,0.2-0.6,0.6-0.6c9.4-0.6,19.3,3.8,29.6,13.1c0.4,0.3,0.7,0.7,0.9,0.8c0.2,0.1,0.3,0.2,0.4,0.4c0.1,0.3-0.1,0.7-0.4,0.8
							C82.1,389.7,82,389.7,81.9,389.7z"/>
					</g>
				</g>
				<path class="st2" d="M106.8,431H75.4c-0.8,0-1.5-0.5-1.7-1.3l-8.2-35.5h51.1l-8.2,35.5C108.3,430.4,107.6,431,106.8,431z"/>
				<polygon class="st10" points="67.9,404.5 114.3,404.5 116.7,394.2 65.6,394.2 				"/>
				<polygon class="st2" points="66,396.2 116.2,396.2 116.7,394.2 65.6,394.2 				"/>
			</g>
		</g>
		<g>
			<g>
				<rect x="224.6" y="104.1" class="st11" width="143.4" height="78.1"/>
				<g>
					<path class="st12" d="M230.9,108.3c0,0.8-0.7,1.5-1.5,1.5c-0.8,0-1.5-0.7-1.5-1.5c0-0.8,0.7-1.5,1.5-1.5
						C230.3,106.8,230.9,107.5,230.9,108.3z"/>
					<path class="st13" d="M237.3,108.3c0,0.8-0.7,1.5-1.5,1.5c-0.8,0-1.5-0.7-1.5-1.5c0-0.8,0.7-1.5,1.5-1.5
						C236.6,106.8,237.3,107.5,237.3,108.3z"/>
					<path class="st14" d="M243.1,108.5c0,0.8-0.7,1.5-1.5,1.5c-0.8,0-1.5-0.7-1.5-1.5c0-0.8,0.7-1.5,1.5-1.5
						C242.5,107,243.1,107.6,243.1,108.5z"/>
				</g>
				<g>
					<g>
						<rect x="239.5" y="120" class="st13" width="78.9" height="1"/>
						<rect x="243.1" y="125.4" class="st13" width="112" height="1"/>
						<rect x="249.5" y="130.8" class="st13" width="86.5" height="1"/>
						<rect x="255.8" y="136.1" class="st13" width="90.4" height="1"/>
						<rect x="264.3" y="141.5" class="st13" width="61" height="1"/>
					</g>
					<g>
						<rect x="239.5" y="169.3" class="st14" width="35.5" height="1"/>
						<rect x="243.1" y="164" class="st14" width="86.5" height="1"/>
						<rect x="249.5" y="158.6" class="st14" width="112" height="1"/>
						<rect x="255.8" y="153.2" class="st14" width="61" height="1"/>
						<rect x="264.3" y="147.9" class="st14" width="73.8" height="1"/>
					</g>
				</g>
				<g>
					<g>
						<rect x="231.7" y="119.1" class="st12" width="1.3" height="1.3"/>
					</g>
					<g>
						<path class="st12" d="M233,165.8h-1.3v-2.6h1.3V165.8z M233,159.3h-1.3v-2.6h1.3V159.3z M233,152.8h-1.3v-2.6h1.3V152.8z
							 M233,146.3h-1.3v-2.6h1.3V146.3z M233,139.8h-1.3v-2.6h1.3V139.8z M233,133.3h-1.3v-2.6h1.3V133.3z M233,126.8h-1.3v-2.6h1.3
							V126.8z"/>
					</g>
					<g>
						<rect x="231.7" y="169.7" class="st12" width="1.3" height="1.3"/>
					</g>
				</g>
			</g>
			<g>
				<g>
					<g>
						<polygon class="st15" points="325.2,270.3 256.5,270.3 256.5,266.4 322.9,266.4 354.8,208 358.2,209.9 						"/>
					</g>
				</g>
				<g>
					<radialGradient id="SVGID_4_" cx="191.8114" cy="154.9692" r="33.9585" gradientUnits="userSpaceOnUse">
						<stop  offset="0" style="stop-color:#FFC8AF"/>
						<stop  offset="1" style="stop-color:#FFBB9C"/>
					</radialGradient>
					<path class="st16" d="M215.2,146.3c0,0-0.9,6.1-4.6,11.7c-3.7,5.6-11.9,13.9-14.2,14.7c-0.9,0.3-4.2-1.2-7.8-3.1
						c-1.2-0.6-2.4-1.3-3.5-1.9c-4.1-2.3-7.7-4.5-7.7-4.5l-5.4-7.7c2.2-11.1,6.1-19.5,12.2-27.4c6-7.9,19.6-3.2,24.5,0.6
						C213.6,132.6,216.3,138.5,215.2,146.3z"/>
					<path class="st17" d="M184.9,147.3c-0.2,5,3.1,6.9,3.8,7.7c0.7,0.8-3.8,5.4-5.7,3.4C181,156.3,184.9,147.3,184.9,147.3z"/>
					<polygon class="st18" points="308.3,397.9 310.7,409.6 294.6,412.4 290.9,399 					"/>
					<g>
						<g>
							<g id="XMLID_33_">
								<g>
									<path class="st12" d="M341.6,415.1l1,5.9l-51,9.1l-1-5.8c0,0,45.2-8.6,50.2-9L341.6,415.1z"/>
									<linearGradient id="SVGID_5_" gradientUnits="userSpaceOnUse" x1="305.6765" y1="402.4634" x2="319.9373" y2="427.1638">
										<stop  offset="0" style="stop-color:#7978E0"/>
										<stop  offset="1" style="stop-color:#563FDA"/>
									</linearGradient>
									<path class="st19" d="M319.9,408.1c0.1-0.1,0.1-0.3,0.1-0.4c1,0.4,2.1,0.8,3.2,1.2l-3.6,5c-0.3,0.4-0.2,1,0.2,1.2
										c0.2,0.1,0.4,0.2,0.7,0.1c0.2,0,0.4-0.2,0.5-0.4l3.7-5.2c0.1-0.1,0.1-0.2,0.1-0.3c6.9,2.6,14,5.2,15.8,5.6
										c-4.9,0.4-50.2,9-50.2,9l1.6-13.5c0.1-0.6,0.6-1,1.2-0.8c12,2.3,16.1-2.9,17.3-4.9c0.2-0.4,0.8-0.6,1.2-0.4
										c0.5,0.2,1.3,0.5,2.2,0.9l-3.6,4.9c-0.3,0.4-0.2,0.9,0.2,1.2c0.2,0.1,0.5,0.2,0.7,0.2c0.2,0,0.4-0.2,0.6-0.4l3.7-5.2
										c0,0,0.1-0.1,0.1-0.1c0.8,0.3,1.8,0.7,2.7,1.1l-3.7,5.2c-0.3,0.4-0.2,0.9,0.2,1.2c0.2,0.1,0.4,0.2,0.7,0.2
										c0.2,0,0.4-0.2,0.5-0.4L319.9,408.1z"/>
									<path class="st12" d="M321,415c-0.1,0.2-0.3,0.3-0.5,0.4c-0.2,0-0.5,0-0.7-0.1c-0.4-0.3-0.5-0.8-0.2-1.2l3.6-5
										c0.6,0.2,1.1,0.4,1.7,0.6c0,0.1,0,0.2-0.1,0.3L321,415z"/>
									<path class="st12" d="M318.4,407.1c0.5,0.2,1,0.4,1.6,0.6c0,0.1-0.1,0.3-0.1,0.4l-3.7,5.2c-0.1,0.2-0.3,0.3-0.5,0.4
										c-0.2,0-0.5,0-0.7-0.2c-0.4-0.3-0.5-0.8-0.2-1.2L318.4,407.1z"/>
									<path class="st12" d="M311.9,411.4c-0.1,0.2-0.4,0.3-0.6,0.4c-0.2,0-0.5,0-0.7-0.2c-0.4-0.3-0.5-0.8-0.2-1.2l3.6-4.9
										c0.5,0.2,1.1,0.4,1.7,0.7c0,0.1,0,0.1-0.1,0.1L311.9,411.4z"/>
								</g>
							</g>
						</g>
					</g>
					<path class="st20" d="M220.9,322.5c-10.5,0.5-24.4,1.3-42.6,2c-51,1.9-40.6-47.4-40.6-47.4l48.7-0.6c0,0,72.5-1.1,87.7,8.7
						c15.3,9.7,37.5,112.6,37.5,112.6l-24.3,6.8c0,0-19.7-42.3-31.2-64.8c-4.7-9.3-8.1-16.1-8.4-16.8
						C247.2,321.2,239.7,321.5,220.9,322.5z"/>
					<path class="st11" d="M188,276.4c-1,0-1.6,0-1.6,0l-48.7,0.6c0,0-5.8,27.7,12.7,40.8c18.4-4.5,29.4-23.1,39.1-39.9L188,276.4z"
						/>
					<path class="st11" d="M256.3,339.7l-4,61l-4.4,0.1v-2.5h-17.4v3l-4.8,0.1l-4.7-78.8c18.8-1,26.3-1.3,26.9,0.4
						C248.1,323.6,251.5,330.4,256.3,339.7z"/>
					<polygon class="st18" points="247.8,400.8 247.8,411.9 230.4,411.9 230.4,401.2 					"/>
					<polygon class="st11" points="247.8,398.3 247.8,400.8 230.4,401.2 230.4,398.3 					"/>
					<g>
						<g>
							<g id="XMLID_40_">
								<g>
									<path class="st12" d="M277.3,422.8v6h-51.8v-5.9c0,0,46-0.5,51-0.1L277.3,422.8z"/>
									<linearGradient id="SVGID_6_" gradientUnits="userSpaceOnUse" x1="239.8611" y1="403.5972" x2="257.3345" y2="433.8619">
										<stop  offset="0" style="stop-color:#7978E0"/>
										<stop  offset="1" style="stop-color:#563FDA"/>
									</linearGradient>
									<path class="st21" d="M257.2,412.2c0.1-0.1,0.2-0.2,0.2-0.4c0.9,0.6,1.9,1.2,2.9,1.8l-4.4,4.3c-0.4,0.3-0.4,0.9,0,1.3
										c0.2,0.2,0.4,0.3,0.6,0.3c0.2,0,0.4-0.1,0.6-0.2l4.6-4.4c0.1-0.1,0.1-0.1,0.1-0.2c6.3,3.8,12.9,7.6,14.6,8.3
										c-4.9-0.4-51,0.1-51,0.1l4-13c0.2-0.6,0.8-0.8,1.3-0.6c11.4,4.4,16.4,0,17.9-1.8c0.3-0.4,0.8-0.5,1.3-0.2
										c0.5,0.3,1.2,0.7,2,1.2l-4.4,4.2c-0.4,0.3-0.4,0.9,0,1.2c0.2,0.2,0.4,0.3,0.6,0.3c0.2,0,0.4-0.1,0.6-0.3l4.6-4.4
										c0,0,0.1-0.1,0.1-0.1c0.8,0.5,1.6,1,2.5,1.5l-4.6,4.4c-0.4,0.3-0.4,0.9,0,1.2c0.2,0.2,0.4,0.3,0.6,0.3
										c0.2,0,0.4-0.1,0.6-0.3L257.2,412.2z"/>
									<path class="st12" d="M257.1,419.2c-0.2,0.2-0.4,0.2-0.6,0.2c-0.2,0-0.5-0.1-0.6-0.3c-0.3-0.4-0.3-0.9,0-1.3l4.4-4.3
										c0.5,0.3,1,0.6,1.5,0.9c0,0.1-0.1,0.2-0.1,0.2L257.1,419.2z"/>
									<path class="st12" d="M256,411c0.5,0.3,1,0.6,1.5,0.9c0,0.1-0.1,0.3-0.2,0.4l-4.6,4.4c-0.2,0.2-0.4,0.3-0.6,0.3
										c-0.2,0-0.5-0.1-0.6-0.3c-0.4-0.4-0.3-0.9,0-1.2L256,411z"/>
									<path class="st12" d="M248.8,414c-0.2,0.2-0.4,0.3-0.6,0.3c-0.2,0-0.5-0.1-0.6-0.3c-0.3-0.4-0.3-0.9,0-1.2l4.4-4.2
										c0.5,0.3,1,0.6,1.5,0.9c0,0.1-0.1,0.1-0.1,0.1L248.8,414z"/>
								</g>
							</g>
						</g>
					</g>
					<g id="XMLID_38_">
						<g>
							<path class="st17" d="M276.1,262.8h-28.8c0,0-43.4-7-51.8-12.2c-3.1-1.9-8.5-7.8-14.1-14.5l19.6-16.3
								c3.4,5.4,6.6,9.9,7.8,10.4c3.4,1.3,35.7,19.3,39.5,19.3C252.1,249.4,269.9,249.1,276.1,262.8z"/>
							<linearGradient id="SVGID_7_" gradientUnits="userSpaceOnUse" x1="162.047" y1="214.6269" x2="202.3707" y2="214.6269">
								<stop  offset="0" style="stop-color:#606BF1"/>
								<stop  offset="1" style="stop-color:#433AFF"/>
							</linearGradient>
							<path class="st22" d="M202.4,219.3l-20.9,16.7c-9.5-11.4-19.4-25-19.4-25l29.7-17.9C191.7,193.2,199.3,211.3,202.4,219.3z"/>
						</g>
					</g>
					<linearGradient id="SVGID_8_" gradientUnits="userSpaceOnUse" x1="128.8005" y1="188.6416" x2="187.7856" y2="290.8069">
						<stop  offset="0" style="stop-color:#606BF1"/>
						<stop  offset="1" style="stop-color:#433AFF"/>
					</linearGradient>
					<path class="st23" d="M184.5,178.3l-21.4-8.4c0,0-25.6,3-27.3,64.6c-0.3,11.9-0.2,77.6,3.4,79.3c14.5,6.7,51.7-37.4,51.7-37.4
						c0.7-1.4-0.3-15.6,0-17c-0.9-0.3-1.6-0.7-2.2-1c-3.8-2.2-10.9-11.7-17.9-21.8l22.1-17.2c0.9,1.4,1.8,2.7,2.6,4
						C195.9,190.5,184.5,178.3,184.5,178.3z"/>
					<path class="st24" d="M190.7,259.4c-0.9-0.3-1.6-0.7-2.2-1c-3.8-2.2-10.9-11.7-17.9-21.8l10.8-8.4L170.6,212l-19.5-12.8v8.8
						c0,0,8.4,22.7,18.3,40.6c5.4,9.7,14.3,14.4,21.4,16.8C190.7,262.5,190.6,259.9,190.7,259.4z"/>
					<radialGradient id="SVGID_9_" cx="226.2258" cy="243.9706" r="42.9885" gradientUnits="userSpaceOnUse">
						<stop  offset="0" style="stop-color:#FFC8AF"/>
						<stop  offset="1" style="stop-color:#FFBB9C"/>
					</radialGradient>
					<path class="st25" d="M253.7,255.9c0,0-45.3-18.5-48.4-19.2c-1-0.2-4.3-4.8-8.4-11c-0.9-1.3-3.3-5-4.1-6.4l-22.1,17.2
						c7,10.2,14.1,19.6,17.9,21.8c0.6,0.3,1.3,0.7,2.2,1c0,0,0-0.1,0-0.1c0,0,0,0.1,0,0.1c13.2,4.9,60.6,7.2,61.5,7.5
						c1.7,1.3,5.7,1.4,9.3,0.4c1.7-0.5,3.3-1.1,4.5-2.1c3.2-2.4,7.9,1,10,2.6c1.4,1,4.6,1,5.7-0.1
						C279.4,254.1,253.7,255.9,253.7,255.9z"/>
					<radialGradient id="SVGID_10_" cx="191.8156" cy="154.9702" r="33.9478" gradientUnits="userSpaceOnUse">
						<stop  offset="0" style="stop-color:#FFC8AF"/>
						<stop  offset="1" style="stop-color:#FFBB9C"/>
					</radialGradient>
					<polygon class="st26" points="189.4,168.3 188.7,169.6 187.3,172.4 187.1,172.9 184.5,178.3 163,169.8 172,155.6 186.2,166 
											"/>
					<linearGradient id="SVGID_11_" gradientUnits="userSpaceOnUse" x1="173.8902" y1="176.209" x2="173.8902" y2="242.416">
						<stop  offset="0" style="stop-color:#606BF1"/>
						<stop  offset="1" style="stop-color:#433AFF"/>
					</linearGradient>
					<path class="st27" d="M151.1,208.1l22.4,34.4l25.6-14.7c0,0-7-26.8-13.7-41.5c-4.2-9.2-16.3-13.7-28-6.4
						C147.1,186.2,147.4,201.2,151.1,208.1z"/>
					<linearGradient id="SVGID_12_" gradientUnits="userSpaceOnUse" x1="200.5275" y1="119.4558" x2="200.5275" y2="156.0838">
						<stop  offset="0" style="stop-color:#56549E"/>
						<stop  offset="0.9898" style="stop-color:#2E2C71"/>
					</linearGradient>
					<path class="st28" d="M193.3,146.2c-0.8-3.7-4.2-7.2-7.3-2.2c-0.8,1.2-1,2.7-1.2,4.2c-0.5,5.2-6.6,7.5-11.1,7.8
						c-0.7,0.1-1.5,0.1-2.2-0.1c0,0,1.1-8.6,3.7-18.9s8.3-20.8,16.6-16.6c0,0,7.6-3.6,12.3,2.3c0,0,7.9-2.8,12,3.5
						c0,0,11.1,2.1,13.1,9c2.6,8.7-9.6,10.9-13.7,8.4c-4.1-2.5-7.2-7.2-10-7.1c-2.8,0.1-2.2,4.4-2.6,7.1c-0.4,2.7-4.6-0.1-6.3,3.5
						c-1.8,3.6-2.6,5.6-3.7,5C191.8,151.6,193.3,146.2,193.3,146.2z"/>
					<path class="st17" d="M191.8,147.1c0.3-1.3-0.5-3.2-1.7-3.3c-1.5-0.1-2.2,1.7-2.3,3.3c-0.1,1.5,0.3,4,2,3.5
						c1.3-0.4-0.1-1.9,0.3-2.8C190.6,147,191.8,148.6,191.8,147.1z"/>
					<path class="st17" d="M188.7,169.6l-1.4,2.8c-4.5-3.2-4.3-8.1-4.3-8.1S184.3,167.1,188.7,169.6z"/>
				</g>
				<g>
					<g>
						<path class="st5" d="M107.7,219.4c0,0.2,0,0.2,0,0.3c0,0.2,0,0.3,0,0.4c0.1,0.4,0.2,1.1,0.3,2.1c1.2,7.8,5.3,34.4,9.2,59.2
							c3.9,24.7,7.5,47.5,7.5,47.5l7.7-1.2c0,0-0.3-1.7-0.7-4.6c-1.6-10.3-5.7-36.2-9.3-59.6c-1.8-11.7-3.6-22.8-4.8-31
							c-0.6-4.1-1.2-7.5-1.5-9.9c-0.2-1.2-0.3-2.1-0.4-2.8c0-0.3-0.1-0.6-0.1-0.7l0-0.2l0,0l-2.3,0.3l2.3-0.2l0-0.1l-2.3,0.3
							l2.3-0.2l-3.6,0.3h3.6c0-0.2,0-0.3,0-0.3l-3.6,0.3h3.6H107.7L107.7,219.4z"/>
					</g>
					<g>
						<path class="st11" d="M176.6,339.4h9.4v90.7c0,0.9-0.7,1.6-1.6,1.6h-6.2c-0.9,0-1.6-0.7-1.6-1.6V339.4z"/>
						<path class="st11" d="M176.6,409.1h9.4v21c0,0.9-0.7,1.6-1.6,1.6h-6.2c-0.9,0-1.6-0.7-1.6-1.6V409.1z"/>
						<path class="st5" d="M155.3,340.7h51.9v1.5c0,3.5-2.8,6.3-6.3,6.3h-39.3c-3.5,0-6.3-2.8-6.3-6.3V340.7z"/>
						<linearGradient id="SVGID_13_" gradientUnits="userSpaceOnUse" x1="164.2831" y1="302.3041" x2="198.3159" y2="361.2508">
							<stop  offset="0" style="stop-color:#EC827D"/>
							<stop  offset="1" style="stop-color:#FF5A7D"/>
						</linearGradient>
						<path class="st29" d="M131.2,341h100.3c4.1,0,7.4-3.3,7.4-7.4V330c0-4.1-3.3-7.4-7.4-7.4H131.2c-4.1,0-7.4,3.3-7.4,7.4v3.6
							C123.8,337.7,127.1,341,131.2,341z"/>
						<path class="st11" d="M132.3,426.2c0,3.1,2.5,5.5,5.5,5.5c3.1,0,5.5-2.5,5.5-5.5c0-3.1-2.5-5.5-5.5-5.5
							C134.8,420.7,132.3,423.1,132.3,426.2z"/>
						<circle class="st11" cx="224.8" cy="426.2" r="5.5"/>
						
							<rect x="171.8" y="402" transform="matrix(-1 -1.224647e-16 1.224647e-16 -1 362.599 820.6477)" class="st5" width="19" height="16.6"/>
						<linearGradient id="SVGID_14_" gradientUnits="userSpaceOnUse" x1="167.4956" y1="396.821" x2="194.3331" y2="443.305">
							<stop  offset="0" style="stop-color:#EC827D"/>
							<stop  offset="1" style="stop-color:#FF5A7D"/>
						</linearGradient>
						<path class="st30" d="M132.3,422.5h98v-2.1c0-3.2-2.6-5.8-5.8-5.8H138c-3.2,0-5.8,2.6-5.8,5.8V422.5z"/>
					</g>
					<g>
						<linearGradient id="SVGID_15_" gradientUnits="userSpaceOnUse" x1="104.1706" y1="220.7478" x2="126.6051" y2="259.6053">
							<stop  offset="0" style="stop-color:#EC827D"/>
							<stop  offset="1" style="stop-color:#FF5A7D"/>
						</linearGradient>
						<path class="st31" d="M105.3,225.8l4.2,30.8c0.6,4.4,4.6,7.5,9,6.9c4.4-0.6,7.5-4.6,6.9-9l-4.2-30.8c-0.6-4.4-4.6-7.5-9-6.9
							C107.8,217.4,104.8,221.4,105.3,225.8"/>
					</g>
				</g>
				<g>
					<rect x="379.6" y="279.5" class="st32" width="8.4" height="151.2"/>
					<rect x="252.3" y="279.5" class="st32" width="8.4" height="151.2"/>
					<g>
						<rect x="245.9" y="270.1" class="st12" width="150.5" height="10.6"/>
					</g>
				</g>
			</g>
			<g>
				<rect x="198.9" y="64.6" class="st14" width="43.5" height="26.8"/>
				<text transform="matrix(1 0 0 1 208.2762 82.9451)" class="st12 st33 st34">&lt;/&gt;</text>
			</g>
			<g>
				<rect x="120" y="96.4" class="st13" width="49.1" height="32.8"/>
				<g>
					<path class="st12" d="M136.3,105.8c-2.3,2.9-2.3,7.2,0.1,10.1c2.7,3.3,7.4,3.8,10.7,1.6l5.2,5.2c0.2,0.2,0.6,0.2,0.8,0l1.4-1.4
						c0.2-0.2,0.2-0.6,0-0.8l-5.2-5.2c2.1-3.1,1.8-7.4-1-10.2C144.9,101.8,139.3,102,136.3,105.8z M146.6,114.9
						c-2.2,2.2-5.8,2.2-8.1,0c-2.2-2.2-2.2-5.8,0-8.1c2.2-2.2,5.8-2.2,8.1,0C148.9,109,148.9,112.7,146.6,114.9z"/>
				</g>
			</g>
			<g>
				<rect x="357.3" y="88.7" class="st35" width="37.7" height="26.9"/>
				<text transform="matrix(1 0 0 1 367.4749 108.8297)" class="st36 st33 st37">{ }</text>
			</g>
		</g>
	</g>
</g>
<g id="Designed_By_Freepik" class="st0">
	<g class="st1">
		<g id="XMLID_1_">
			<g id="XMLID_24_">
				<path id="XMLID_32_" class="st12" d="M260.6,467.9c-0.4,0.4-0.8,0.9-1.1,1.5l-0.5-0.2c-0.1-0.3-0.3-0.5-0.7-0.5
					c-0.3,0-0.6,0.3-0.5,0.7c0,0.3,0.3,0.6,0.7,0.5c0.1,0,0.1,0,0.2-0.1l0.5,0.2c-0.3,0.6-0.4,1.1-0.5,1.7l0.7,0.1
					c0.2-1.3,0.8-2.5,1.8-3.5L260.6,467.9z"/>
				<path id="XMLID_31_" class="st12" d="M266.1,465.6c-0.2,0-0.3,0-0.5,0l-0.1-0.6c0.2-0.1,0.3-0.4,0.3-0.6c0-0.4-0.4-0.7-0.8-0.6
					c-0.4,0-0.7,0.4-0.6,0.8c0,0.3,0.2,0.5,0.4,0.6l0.1,0.6c-0.7,0.1-1.4,0.3-2.1,0.6l0.3,0.7c0.9-0.4,1.9-0.7,3-0.7
					c0.5,0,1,0.1,1.5,0.2l0.2-0.7C267.2,465.7,266.6,465.6,266.1,465.6z"/>
				<path id="XMLID_30_" class="st12" d="M272.7,468.2c0.3,0,0.6-0.3,0.5-0.7c0-0.3-0.3-0.6-0.7-0.5c-0.3,0-0.5,0.3-0.5,0.6
					l-0.4,0.4c-0.4-0.4-0.9-0.8-1.4-1.1l-0.4,0.6c1.1,0.7,2,1.7,2.6,2.9l0.7-0.3c-0.3-0.6-0.6-1.1-0.9-1.5l0.4-0.4
					C272.6,468.2,272.6,468.2,272.7,468.2z"/>
				<path id="XMLID_29_" class="st12" d="M265.6,475.9c-0.4,0-0.8,0-1.2,0c-0.9,0-1.7-0.1-2.5-0.2c-0.4-0.1-0.8-0.2-1.3-0.3
					c1,1.9,3.1,3.1,5.4,3.1c2.9,0,5.3-1.9,5.9-4.5c-0.7,0.4-1.5,0.8-2.5,1.1C268.3,475.5,267,475.8,265.6,475.9z"/>
				<path id="XMLID_25_" class="st12" d="M266.1,467.2c-3.4,0-6.1,2.7-6.1,5.9c0,0.4,0,0.8,0.1,1.3c0.7,0.5,2.7,0.9,5.3,0.7
					c2.9-0.2,5.3-1,6.7-2.2c0-0.2,0-0.4,0-0.6C271.8,469.4,269.2,467.2,266.1,467.2z M263.9,473.7c-1,0-1.8-0.8-1.8-1.8
					c0-1,0.8-1.8,1.8-1.8c1,0,1.8,0.8,1.8,1.8C265.8,472.8,265,473.7,263.9,473.7z M268.7,472.8c-0.8,0-1.4-0.6-1.4-1.4
					c0-0.8,0.6-1.4,1.4-1.4c0.8,0,1.4,0.6,1.4,1.4C270,472.2,269.4,472.8,268.7,472.8z"/>
			</g>
			<path id="XMLID_22_" class="st12" d="M282.1,469c-0.3-0.1-0.8-0.3-1.4-0.2c-0.6,0.1-0.8,0.3-0.8,1v0.9h2.2v1.7h-2.2v5.5h-1.9
				v-5.5h-1.3v-1.7h1.3v-0.9c0-1.7,0.9-2.8,2.6-2.8c0.6,0,1.2,0.1,1.6,0.3L282.1,469z"/>
			<path id="XMLID_20_" class="st12" d="M286.8,472.4c-0.2,0-0.4,0-0.5,0c-0.9,0-1.5,0.5-1.5,1.6v3.9h-1.9v-7.2h1.9v0.8
				c0.5-0.7,1.1-1,2-1c0.4,0,0.8,0.1,1.1,0.3L286.8,472.4z"/>
			<path id="XMLID_16_" class="st12" d="M294.5,474.2c0,0.2,0,0.5,0,0.7h-5.1c0.2,1,0.9,1.5,1.8,1.5c0.6,0,1.3-0.3,1.8-0.7l1.1,1.2
				c-0.8,0.7-1.9,1.1-3.1,1.1c-2.2,0-3.7-1.5-3.7-3.8c0-2.3,1.5-3.8,3.6-3.8C293.1,470.5,294.5,472,294.5,474.2z M289.4,473.6h3.2
				c-0.2-0.9-0.7-1.4-1.6-1.4C290.1,472.1,289.5,472.7,289.4,473.6z"/>
			<path id="XMLID_13_" class="st12" d="M302.1,474.2c0,0.2,0,0.5,0,0.7H297c0.2,1,0.9,1.5,1.8,1.5c0.6,0,1.3-0.3,1.8-0.7l1.1,1.2
				c-0.8,0.7-1.9,1.1-3.1,1.1c-2.2,0-3.7-1.5-3.7-3.8c0-2.3,1.5-3.8,3.6-3.8C300.7,470.5,302.1,472,302.1,474.2z M297,473.6h3.2
				c-0.2-0.9-0.7-1.4-1.6-1.4C297.7,472.1,297.2,472.7,297,473.6z"/>
			<path id="XMLID_8_" class="st12" d="M310.5,474.2c0,2.2-1.5,3.8-3.5,3.8c-1,0-1.6-0.4-2.1-0.9v3.7H303v-10.1h1.9v0.8
				c0.5-0.6,1.2-1,2.1-1C309,470.5,310.5,472.1,310.5,474.2z M304.8,474.2c0,1.1,0.7,2,1.8,2c1.1,0,1.9-0.9,1.9-2c0-1.1-0.7-2-1.9-2
				C305.5,472.3,304.8,473.1,304.8,474.2z"/>
			<path id="XMLID_5_" class="st12" d="M313.6,468.3c0,0.7-0.5,1.2-1.2,1.2c-0.7,0-1.2-0.5-1.2-1.2c0-0.7,0.5-1.2,1.2-1.2
				C313,467.1,313.6,467.6,313.6,468.3z M313.3,477.8h-1.9v-7.2h1.9V477.8z"/>
			<path id="XMLID_2_" class="st12" d="M316.5,473.2l2.7-2.6h2.4l-3.5,3.4l3.5,3.8h-2.4l-2.7-2.9v2.9h-1.9v-10.7h1.9V473.2z"/>
		</g>
		<g>
			<path class="st12" d="M184.9,477.8v-1.1c-0.5,0.7-1.4,1.2-2.4,1.2c-1.8,0-3.1-1.4-3.1-3.7c0-2.3,1.3-3.7,3.1-3.7
				c1,0,1.8,0.5,2.4,1.2V468h1.1v9.8H184.9z M184.9,475.9v-3.2c-0.4-0.6-1.2-1.1-2.1-1.1c-1.4,0-2.3,1.2-2.3,2.7
				c0,1.6,0.8,2.7,2.3,2.7C183.7,477,184.5,476.5,184.9,475.9z"/>
			<path class="st12" d="M187.4,474.2c0-2.1,1.5-3.7,3.5-3.7c2.1,0,3.4,1.7,3.4,3.8v0.3h-5.7c0.1,1.3,1,2.4,2.5,2.4
				c0.8,0,1.6-0.3,2.2-0.9l0.5,0.7c-0.7,0.7-1.7,1.1-2.8,1.1C188.9,477.9,187.4,476.4,187.4,474.2z M190.9,471.4
				c-1.5,0-2.3,1.3-2.3,2.4h4.6C193.2,472.7,192.5,471.4,190.9,471.4z"/>
			<path class="st12" d="M195.1,476.8l0.6-0.8c0.5,0.5,1.4,1,2.3,1c1.1,0,1.7-0.5,1.7-1.2c0-1.7-4.4-0.7-4.4-3.3c0-1.1,1-2,2.6-2
				c1.2,0,2.1,0.5,2.6,1l-0.5,0.8c-0.4-0.5-1.2-0.9-2.1-0.9c-1,0-1.6,0.5-1.6,1.1c0,1.6,4.4,0.5,4.4,3.3c0,1.2-1,2.1-2.8,2.1
				C196.8,477.9,195.8,477.6,195.1,476.8z"/>
			<path class="st12" d="M202,469c0-0.4,0.3-0.7,0.7-0.7c0.4,0,0.7,0.3,0.7,0.7c0,0.4-0.3,0.7-0.7,0.7
				C202.3,469.7,202,469.4,202,469z M202.2,477.8v-7.1h1.1v7.1H202.2z"/>
			<path class="st12" d="M205.1,479.6l0.6-0.8c0.6,0.7,1.3,1,2.3,1c1.2,0,2.3-0.6,2.3-2.1v-1c-0.5,0.7-1.4,1.3-2.4,1.3
				c-1.8,0-3.1-1.4-3.1-3.7c0-2.3,1.3-3.7,3.1-3.7c1,0,1.8,0.5,2.4,1.2v-1.1h1.1v6.9c0,2.3-1.6,3.1-3.4,3.1
				C206.7,480.6,205.9,480.4,205.1,479.6z M210.2,475.7v-3.1c-0.4-0.6-1.2-1.1-2.1-1.1c-1.4,0-2.3,1.1-2.3,2.7
				c0,1.6,0.8,2.7,2.3,2.7C209,476.9,209.8,476.4,210.2,475.7z"/>
			<path class="st12" d="M217.9,477.8v-4.6c0-1.2-0.6-1.6-1.6-1.6c-0.9,0-1.7,0.5-2.1,1.1v5.2h-1.1v-7.1h1.1v1
				c0.5-0.6,1.5-1.2,2.5-1.2c1.5,0,2.3,0.7,2.3,2.3v5H217.9z"/>
			<path class="st12" d="M220.4,474.2c0-2.1,1.5-3.7,3.5-3.7c2.1,0,3.4,1.7,3.4,3.8v0.3h-5.7c0.1,1.3,1,2.4,2.5,2.4
				c0.8,0,1.6-0.3,2.2-0.9l0.5,0.7c-0.7,0.7-1.7,1.1-2.8,1.1C221.9,477.9,220.4,476.4,220.4,474.2z M223.9,471.4
				c-1.5,0-2.3,1.3-2.3,2.4h4.6C226.2,472.7,225.5,471.4,223.9,471.4z"/>
			<path class="st12" d="M233.9,477.8v-1.1c-0.5,0.7-1.4,1.2-2.4,1.2c-1.8,0-3.1-1.4-3.1-3.7c0-2.3,1.3-3.7,3.1-3.7
				c1,0,1.8,0.5,2.4,1.2V468h1.1v9.8H233.9z M233.9,475.9v-3.2c-0.4-0.6-1.2-1.1-2.1-1.1c-1.4,0-2.3,1.2-2.3,2.7
				c0,1.6,0.8,2.7,2.3,2.7C232.6,477,233.5,476.5,233.9,475.9z"/>
			<path class="st12" d="M240.2,477.8V468h1.1v3.8c0.6-0.8,1.4-1.2,2.4-1.2c1.8,0,3.1,1.5,3.1,3.7c0,2.3-1.3,3.7-3.1,3.7
				c-1,0-1.9-0.5-2.4-1.2v1.1H240.2z M243.4,477c1.4,0,2.3-1.2,2.3-2.7c0-1.6-0.8-2.7-2.3-2.7c-0.9,0-1.7,0.5-2.1,1.1v3.2
				C241.7,476.5,242.5,477,243.4,477z"/>
			<path class="st12" d="M248,479.5c0.2,0.1,0.4,0.1,0.6,0.1c0.5,0,0.8-0.2,1.1-0.7l0.5-1.1l-3-7.1h1.2l2.4,5.8l2.3-5.8h1.2
				l-3.5,8.5c-0.4,1-1.1,1.4-2.1,1.4c-0.2,0-0.6,0-0.8-0.1L248,479.5z"/>
		</g>
	</g>
</g>
</svg>
